<svg width="353" height="342" viewBox="0 0 353 342" fill="none" xmlns="http://www.w3.org/2000/svg">
<path fill-rule="evenodd" clip-rule="evenodd" d="M179.651 9.03329C217.803 6.16779 260.125 -10.8408 291.604 10.9034C323.147 32.6916 323.301 78.0653 333.205 115.1C342.505 149.876 361.874 186.539 347.386 219.493C333.123 251.935 292.07 259.674 261.65 277.855C234.643 293.996 210.025 311.537 179.651 319.742C139.156 330.682 94.4927 352.946 57.6056 332.974C20.4523 312.859 7.02218 264.853 1.02896 223.031C-4.34045 185.562 12.3734 150.356 26.3978 115.198C39.4335 82.5184 50.3629 46.8856 79.2847 26.8503C107.917 7.01584 144.918 11.642 179.651 9.03329Z" fill="#5C5C5C" fill-opacity="0.25"/>
<path d="M148.378 119.261C151.672 120.006 155.226 118.776 155.271 121.664C155.305 124.553 147.498 122.003 147.498 122.003L148.378 119.261Z" fill="#FFBB83"/>
<path d="M149.529 120.762C149.754 118.291 147.588 116.565 142.533 116.328C137.479 116.091 133.202 117.907 132.977 120.39C132.751 122.86 136.655 125.061 141.71 125.298C146.764 125.523 149.303 123.233 149.529 120.762Z" fill="#FFBB83"/>
<path d="M227.178 131.909C214.721 128.299 184.449 131.041 181.211 131.571C177.973 132.112 163.824 145.483 166.205 149.827C174.171 164.37 198.497 162.746 208.471 162.802C218.637 162.858 231.634 157.849 236.294 151.181C240.943 144.512 233.474 133.726 227.178 131.909Z" fill="#FF9A3E"/>
<path d="M196.319 144.456C211.416 144.456 225.734 138.973 232.447 135.272C230.788 133.636 228.938 132.406 227.178 131.898C214.721 128.288 184.45 131.029 181.211 131.56C179.666 131.819 175.638 135.012 172.095 138.736C178.977 140.462 186.65 144.456 196.319 144.456Z" fill="#FFBB4D"/>
<path d="M139.058 224.621H135.278V274.401H139.058V224.621Z" fill="#776271"/>
<path d="M100.606 224.621H96.8262V274.401H100.606V224.621Z" fill="#776271"/>
<path d="M139.046 227.577L135.278 227.16V242.561L139.046 242.99V227.577Z" fill="#685263"/>
<path d="M100.606 223.267L96.8262 222.838V238.251L100.606 238.668V223.267Z" fill="#685263"/>
<path d="M142.082 268.173H131.566V275.134H142.082V268.173Z" fill="#3A2B35"/>
<path d="M104.16 268.173H93.6445V275.134H104.16V268.173Z" fill="#3A2B35"/>
<path d="M145.795 322.319H126.828V335.306H145.795V322.319Z" fill="#2B1F28"/>
<path d="M129.491 329.518C129.48 329.518 129.468 329.518 129.457 329.518H127.731C127.719 329.518 127.708 329.518 127.697 329.518C124.38 329.518 121.694 332.204 121.694 335.521C121.694 338.827 124.368 341.501 127.663 341.523H127.697H129.491C132.808 341.523 135.493 338.838 135.493 335.521C135.493 332.204 132.808 329.518 129.491 329.518Z" fill="#2B1F28"/>
<path d="M144.836 329.518C144.825 329.518 144.813 329.518 144.802 329.518H143.076C143.065 329.518 143.053 329.518 143.042 329.518C139.725 329.518 137.04 332.203 137.04 335.52C137.04 338.826 139.714 341.5 143.008 341.523H143.031H144.825C148.142 341.523 150.827 338.837 150.827 335.52C150.827 332.203 148.142 329.518 144.836 329.518Z" fill="#2B1F28"/>
<path d="M182.102 322.703H60.0103V328.186H182.102V322.703Z" fill="#2B1F28"/>
<path d="M69.341 324.745H50.3745V335.306H69.341V324.745Z" fill="#2B1F28"/>
<path d="M184.167 322.319H165.201V335.306H184.167V322.319Z" fill="#2B1F28"/>
<path d="M119.572 322.319H100.606V335.306H119.572V322.319Z" fill="#2B1F28"/>
<path d="M275.039 196.831L231.024 216.7L285.024 338.183H285.983C285.983 338.183 288.42 218.551 275.039 196.831Z" fill="#3A2B35"/>
<path d="M275.04 196.831L259.289 207.719L285.025 338.183H285.984C285.984 338.183 288.421 218.551 275.04 196.831Z" fill="#2D2029"/>
<path d="M276.404 202.168L222.179 221.281L213.728 338.183H214.687C214.687 338.183 278.627 223.064 276.404 202.168Z" fill="#3A2B35"/>
<path d="M276.405 202.168L222.179 221.281L221.412 231.944L256.626 231.289L214.631 338.194H214.699C214.687 338.183 278.627 223.064 276.405 202.168Z" fill="#2D2029"/>
<path d="M265.731 165.273L213.502 176.612L217.508 221.947C237.591 220.683 260.936 214.207 277.736 202.608C277.736 202.619 268.405 170.169 265.731 165.273Z" fill="#FFBB4D"/>
<path d="M227.629 211.138C235.809 212.21 243.165 214.038 248.75 216.193C259.232 212.966 269.308 208.441 277.736 202.619C277.736 202.619 268.405 170.17 265.731 165.284L213.502 176.623L216.47 210.246C219.99 210.337 223.736 210.63 227.629 211.138Z" fill="#FF9A3E"/>
<path d="M125.485 218.539H110.377V277.357H125.485V218.539Z" fill="#3A2B35"/>
<path d="M125.496 223.583H110.377V233.658L125.496 271.14V223.583Z" fill="#2B1F28"/>
<path d="M187.722 322.184H48.1523V325.964H187.722V322.184Z" fill="#3A2B35"/>
<path d="M161.06 272.472H74.8247L95.416 322.297L187.157 322.331L187.721 322.184L161.06 272.472Z" fill="#3A2B35"/>
<path d="M135.053 199.28H100.82V215.279H135.053V199.28Z" fill="#3A2B35"/>
<path d="M135.053 199.133H100.82V206.523L135.053 218.833V199.133Z" fill="#2B1F28"/>
<path d="M143.21 214.173H92.6627C90.9138 214.173 89.4922 215.594 89.4922 217.343V225.219C89.4922 226.968 90.9138 228.389 92.6627 228.389H143.21C144.959 228.389 146.38 226.968 146.38 225.219V217.343C146.392 215.594 144.97 214.173 143.21 214.173Z" fill="#4C3845"/>
<path d="M146.832 187.94H89.041V200.306C89.041 201.829 90.2709 203.059 91.794 203.059H144.079C145.602 203.059 146.832 201.829 146.832 200.306V187.94Z" fill="#2B1F28"/>
<path d="M122.01 133.241H58.205C52.5297 133.241 47.9263 137.844 47.9263 143.52V179.174C47.9263 184.849 52.5297 189.452 58.205 189.452H122.01V133.241Z" fill="#F7E7C1"/>
<path d="M156.649 121.349H74.8592C73.3699 121.349 72.1514 122.556 72.1514 124.057V140.169H159.345V124.057C159.357 122.556 158.138 121.349 156.649 121.349Z" fill="#4C3845"/>
<path d="M170.729 121.349H134.725C133.236 121.349 132.018 122.556 132.018 124.057V140.169H173.426V124.057C173.426 122.556 172.218 121.349 170.729 121.349Z" fill="#3A2B35"/>
<path d="M144.835 127.419H59.9424C58.6674 127.419 57.6406 128.446 57.6406 129.721V192.973C57.6406 194.247 58.6674 195.274 59.9424 195.274H144.835V127.419Z" fill="#5B4352"/>
<path d="M92.5838 140.056C111.189 134.245 129.287 131.763 144.835 132.271V127.419H61.2737C59.2654 127.419 57.6406 129.044 57.6406 131.052V155.265C67.8404 149.33 79.6536 144.095 92.5838 140.056Z" fill="#684E5F"/>
<path d="M57.6299 188.583V191.652C57.6299 193.661 59.2546 195.285 61.2629 195.285H144.824V188.583H57.6299Z" fill="#4C3845"/>
<path d="M182.497 127.419H128.497C127.324 127.419 126.376 128.367 126.376 129.54V193.176C126.376 194.349 127.324 195.297 128.497 195.297H182.497C183.67 195.297 184.618 194.349 184.618 193.176V129.54C184.618 128.367 183.67 127.419 182.497 127.419Z" fill="#473240"/>
<path d="M178.616 132.711L134.703 167.846L147.52 195.274H181.29C183.129 195.274 184.619 193.785 184.619 191.946V143.271C184.619 141.432 180.455 132.711 178.616 132.711Z" fill="#3A2B35"/>
<path d="M177.623 131.424H136.238C134.67 131.424 133.395 132.699 133.395 134.268V166.334C133.395 167.902 134.67 169.177 136.238 169.177H177.623C179.192 169.177 180.467 167.902 180.467 166.334V134.268C180.467 132.688 179.192 131.424 177.623 131.424Z" fill="#5B4352"/>
<path d="M174.961 134.053H140.04C138.472 134.053 137.197 135.328 137.197 136.896V163.682C137.197 165.25 138.472 166.525 140.04 166.525H174.961C176.529 166.525 177.804 165.25 177.804 163.682V136.896C177.804 135.328 176.529 134.053 174.961 134.053Z" fill="#2B1F28"/>
<path d="M221.424 109.626C221.446 110.077 227.877 129.19 227.877 129.19L212.77 134.38L209.509 129.19L221.424 109.626Z" fill="#ED7656"/>
<path d="M203.179 142.515L211.732 206.839C211.732 206.839 250.184 212.176 277.736 187.5C277.736 187.5 261.354 120.841 224.842 127.047C209.215 129.709 203.179 142.515 203.179 142.515Z" fill="#5B4352"/>
<path d="M253.997 151.801C236.779 133.038 216.831 128.028 209.452 140.631C202.073 153.223 210.039 178.654 227.256 197.418C230.314 200.758 233.473 203.646 236.621 206.094C248.107 204.289 261.861 200.036 274.024 190.581C272.095 178.293 264.919 163.716 253.997 151.801Z" fill="#493242"/>
<path d="M239.758 150.199C233.428 138.815 223.465 133.162 217.519 137.573C211.573 141.996 211.889 154.802 218.219 166.198C224.549 177.583 234.511 183.235 240.457 178.824C246.404 174.401 246.099 161.595 239.758 150.199Z" fill="#FF9A3E"/>
<path d="M206.992 137.28C197.12 145.9 187.473 168.296 186.333 171.388C185.194 174.479 187.777 199.561 193.204 200.024C211.381 201.57 222.247 179.726 227.392 171.185C232.649 162.474 234.421 148.416 230.336 140.563C226.263 132.71 211.979 132.913 206.992 137.28Z" fill="#FFBB4D"/>
<path d="M230.348 140.563C229.129 138.228 226.997 136.614 224.492 135.599C225.056 142.989 223.093 151.733 219.403 157.849C214.45 166.051 204.228 186.507 187.326 186.744C188.511 193.435 190.508 199.787 193.216 200.013C211.393 201.559 223.623 180.403 228.78 171.862C234.026 163.163 234.432 148.416 230.348 140.563Z" fill="#FF9A3E"/>
<path d="M124.424 272.472L94.6372 325.964H98.5636L128.35 272.472H124.424Z" fill="#4C3845"/>
<path d="M74.4187 272.472L44.6318 325.964H48.5583L78.3451 272.472H74.4187Z" fill="#4C3845"/>
<path d="M123.274 277.741H73.2681L48.1523 325.964H98.1581L123.274 277.741Z" fill="#4C3845"/>
<path d="M125.824 272.472H74.825L71.5981 282.107H121.051L125.824 272.472Z" fill="#4C3845"/>
<path d="M215.624 341.41H201.96C201.96 341.41 211.505 336.784 213.514 336.739C215.511 336.694 215.624 341.41 215.624 341.41Z" fill="#6D5E69"/>
<path d="M290.181 341.41H281.516C281.516 341.41 283.501 336.209 284.472 336.186C285.442 336.164 290.181 341.41 290.181 341.41Z" fill="#6D5E69"/>
<path d="M102.942 341.523C106.257 341.523 108.944 338.836 108.944 335.521C108.944 332.205 106.257 329.518 102.942 329.518C99.6269 329.518 96.9395 332.205 96.9395 335.521C96.9395 338.836 99.6269 341.523 102.942 341.523Z" fill="#4C3845"/>
<path d="M104.747 329.518H102.919V341.512H104.747V329.518Z" fill="#4C3845"/>
<path d="M104.748 341.523C108.063 341.523 110.75 338.836 110.75 335.521C110.75 332.205 108.063 329.518 104.748 329.518C101.432 329.518 98.7451 332.205 98.7451 335.521C98.7451 338.836 101.432 341.523 104.748 341.523Z" fill="#3A2B35"/>
<path d="M108.967 335.521C108.967 333.636 107.444 332.113 105.56 332.113C103.676 332.113 102.152 333.636 102.152 335.521C102.152 337.405 103.676 338.928 105.56 338.928C107.444 338.928 108.967 337.405 108.967 335.521Z" fill="#756471"/>
<path d="M118.287 341.523C121.602 341.523 124.289 338.836 124.289 335.521C124.289 332.205 121.602 329.518 118.287 329.518C114.972 329.518 112.284 332.205 112.284 335.521C112.284 338.836 114.972 341.523 118.287 341.523Z" fill="#4C3845"/>
<path d="M120.081 329.518H118.253V341.512H120.081V329.518Z" fill="#4C3845"/>
<path d="M120.081 341.523C123.396 341.523 126.084 338.836 126.084 335.521C126.084 332.205 123.396 329.518 120.081 329.518C116.766 329.518 114.079 332.205 114.079 335.521C114.079 338.836 116.766 341.523 120.081 341.523Z" fill="#3A2B35"/>
<path d="M120.893 338.928C122.775 338.928 124.301 337.403 124.301 335.521C124.301 333.639 122.775 332.113 120.893 332.113C119.011 332.113 117.486 333.639 117.486 335.521C117.486 337.403 119.011 338.928 120.893 338.928Z" fill="#756471"/>
<path d="M53.1959 329.518C53.1846 329.518 53.1733 329.518 53.162 329.518H51.4357C51.4244 329.518 51.4132 329.518 51.4019 329.518C48.0847 329.518 45.3994 332.203 45.3994 335.521C45.3994 338.826 48.0734 341.501 51.368 341.523H51.3906H53.1846C56.5018 341.523 59.1871 338.838 59.1871 335.521C59.1871 332.203 56.5131 329.518 53.1959 329.518Z" fill="#2B1F28"/>
<path d="M68.5289 329.518C68.5176 329.518 68.5063 329.518 68.4951 329.518H66.7687C66.7575 329.518 66.7462 329.518 66.7349 329.518C63.4178 329.518 60.7324 332.203 60.7324 335.521C60.7324 338.826 63.4064 341.501 66.701 341.523H66.7349H68.5289C71.846 341.523 74.5314 338.838 74.5314 335.521C74.5314 332.203 71.846 329.518 68.5289 329.518Z" fill="#2B1F28"/>
<path d="M166.442 341.523C169.757 341.523 172.444 338.836 172.444 335.521C172.444 332.205 169.757 329.518 166.442 329.518C163.127 329.518 160.439 332.205 160.439 335.521C160.439 338.836 163.127 341.523 166.442 341.523Z" fill="#4C3845"/>
<path d="M168.246 329.518H166.418V341.512H168.246V329.518Z" fill="#4C3845"/>
<path d="M168.247 341.523C171.562 341.523 174.25 338.836 174.25 335.521C174.25 332.205 171.562 329.518 168.247 329.518C164.932 329.518 162.245 332.205 162.245 335.521C162.245 338.836 164.932 341.523 168.247 341.523Z" fill="#3A2B35"/>
<path d="M172.467 335.521C172.467 333.636 170.943 332.113 169.059 332.113C167.175 332.113 165.652 333.636 165.652 335.521C165.652 337.405 167.175 338.928 169.059 338.928C170.943 338.928 172.467 337.405 172.467 335.521Z" fill="#756471"/>
<path d="M181.775 341.523C185.091 341.523 187.778 338.836 187.778 335.521C187.778 332.205 185.091 329.518 181.775 329.518C178.46 329.518 175.773 332.205 175.773 335.521C175.773 338.836 178.46 341.523 181.775 341.523Z" fill="#4C3845"/>
<path d="M183.581 329.518H181.753V341.512H183.581V329.518Z" fill="#4C3845"/>
<path d="M183.581 341.523C186.896 341.523 189.583 338.836 189.583 335.521C189.583 332.205 186.896 329.518 183.581 329.518C180.266 329.518 177.578 332.205 177.578 335.521C177.578 338.836 180.266 341.523 183.581 341.523Z" fill="#3A2B35"/>
<path d="M184.393 338.928C186.275 338.928 187.8 337.403 187.8 335.521C187.8 333.639 186.275 332.113 184.393 332.113C182.511 332.113 180.985 333.639 180.985 335.521C180.985 337.403 182.511 338.928 184.393 338.928Z" fill="#756471"/>
<path d="M141.382 214.173H120.791C123.555 214.173 125.789 216.407 125.789 219.171V223.391C125.789 226.155 123.555 228.389 120.791 228.389H141.382C144.147 228.389 146.381 226.155 146.381 223.391V219.171C146.392 216.407 144.147 214.173 141.382 214.173Z" fill="#3A2B35"/>
<path d="M168.732 136.107H141.27C139.701 136.107 138.426 137.382 138.426 138.95V161.629C138.426 163.197 139.701 164.472 141.27 164.472H168.732C170.3 164.472 171.575 163.197 171.575 161.629V138.95C171.575 137.382 170.3 136.107 168.732 136.107Z" fill="#62ABBC"/>
<path d="M166.284 157.646H156.615V163.028H166.284C167.774 163.028 168.981 161.82 168.981 160.331C168.97 158.853 167.762 157.646 166.284 157.646Z" fill="#94CEE0"/>
<path d="M152.316 157.646H144.79C143.301 157.646 142.093 158.853 142.093 160.342C142.093 161.831 143.301 163.039 144.79 163.039H152.316V157.646Z" fill="#94CEE0"/>
<path d="M66.532 142.086H63.418V183.134H66.532V142.086Z" fill="#3A2B35"/>
<path d="M71.8577 142.086H68.7437V183.134H71.8577V142.086Z" fill="#3A2B35"/>
<path d="M77.1942 142.086H74.0801V183.134H77.1942V142.086Z" fill="#3A2B35"/>
<path d="M102.682 142.831H96.3071V149.793H102.682V142.831Z" fill="#3A2B35"/>
<path d="M100.82 144.603H96.894V148.608H100.82V144.603Z" fill="#EF353F"/>
<path d="M110.975 142.831H104.6V149.793H110.975V142.831Z" fill="#3A2B35"/>
<path d="M109.125 144.603H105.198V148.608H109.125V144.603Z" fill="#62ABBC"/>
<path d="M100.155 323.301H44V326.122H100.155V323.301Z" fill="#756471"/>
<path d="M188.319 323.301H99.5679V326.122H188.319V323.301Z" fill="#4C3845"/>
<path d="M205.289 200.893C214.823 196.211 217.452 185.616 211.167 177.211C204.883 168.816 192.054 165.804 182.52 170.475C172.986 175.157 170.357 185.752 176.642 194.157C182.926 202.563 195.755 205.564 205.289 200.893Z" fill="#F24040"/>
<path d="M152.925 184.262C162.696 192.115 186.762 200.43 194.085 199.821C205.853 198.839 211.799 192.984 210.445 184.127C209.531 178.181 196.612 172.076 192.257 171.072C185.792 169.594 155.407 171.242 155.407 171.242L152.925 184.262Z" fill="#FFBB83"/>
<path d="M209.384 181.611C202.49 184.883 190.564 186.519 177.172 185.537C168.134 184.871 153.466 184.68 153.466 184.68C163.237 192.532 186.773 200.43 194.096 199.821C205.864 198.84 211.81 192.984 210.456 184.127C210.321 183.292 209.926 182.446 209.384 181.611Z" fill="#FF9D66"/>
<path d="M203.732 104.898C200.821 116.993 201.656 128.017 202.694 129.055C203.732 130.093 215.804 128.761 217.44 127.125C219.065 125.5 222.123 106.94 220.634 104.571C219.144 102.201 204.522 101.592 203.732 104.898Z" fill="#FFBB83"/>
<path d="M218.444 115.775C218.986 111.498 221.254 105.564 220.633 104.571C219.155 102.201 204.532 101.592 203.731 104.898C203.325 106.613 202.987 108.294 202.716 109.941C207.048 109.411 217.406 115.222 218.444 115.775Z" fill="#FF9D66"/>
<path d="M225.373 121.732L224.809 105.643L212.623 104.086L213.661 116.305L219.291 117.49L225.373 121.732Z" fill="#892129"/>
<path d="M203.822 104.639L224.977 110.528C224.977 110.528 226.692 100.52 225.801 98.8168C224.909 97.1131 209.802 93.7846 207.726 94.4503C205.65 95.116 203.822 104.639 203.822 104.639Z" fill="#F24040"/>
<path d="M225.801 98.8167C225.248 97.7561 219.133 96.0524 214.123 95.082C215.263 97.3837 215.951 100.283 215.951 103.443C215.951 105 215.782 106.489 215.477 107.877L224.977 110.517C224.977 110.528 226.692 100.532 225.801 98.8167Z" fill="#D82B2B"/>
<path d="M216.03 108.058C205.277 106.331 188.838 103.499 188.319 101.119C187.8 98.7491 204.713 100.825 204.713 100.825C205.119 103.499 208.831 105.914 216.03 108.058Z" fill="#5B4352"/>
<path d="M220.622 116.181C221.232 114.252 220.667 112.356 219.359 111.939C218.061 111.532 216.504 112.762 215.906 114.703C215.297 116.632 215.861 118.528 217.17 118.945C218.467 119.34 220.013 118.11 220.622 116.181Z" fill="#FFBB83"/>
<path d="M219.629 116.125C220.013 114.906 219.652 113.721 218.84 113.462C218.027 113.202 217.046 113.981 216.673 115.199C216.29 116.407 216.651 117.603 217.463 117.862C218.275 118.11 219.246 117.332 219.629 116.125Z" fill="#ED7656"/>
<path d="M218.602 117.264C218.851 116.463 218.614 115.685 218.083 115.515C217.542 115.346 216.91 115.854 216.662 116.655C216.413 117.456 216.65 118.235 217.181 118.404C217.711 118.562 218.354 118.054 218.602 117.264Z" fill="#FFBB83"/>
<path d="M137.941 120.66C132.435 120.942 131.318 122.714 130.382 125.061C130.077 125.828 127.877 126.054 127.877 124.948C127.877 123.831 129.66 118.449 135.154 117.941C140.66 117.433 137.941 120.66 137.941 120.66Z" fill="#FFBB83"/>
<path d="M142.668 120.66C137.162 120.942 135.222 122.624 135.109 125.061C135.075 125.884 132.604 126.053 132.604 124.948C132.604 123.831 132.548 119.442 138.054 118.945C143.548 118.438 142.668 120.66 142.668 120.66Z" fill="#FFBB83"/>
<path d="M147.78 120.66C142.274 120.942 140.333 122.624 140.221 125.061C140.187 125.884 137.716 126.053 137.716 124.948C137.716 123.831 137.659 119.442 143.165 118.945C148.66 118.438 147.78 120.66 147.78 120.66Z" fill="#FFBB83"/>
<path d="M161.963 170.768C157.201 169.718 157.641 166.898 154.561 167.36C151.481 167.823 151.086 170.44 145.253 168.342C142.522 167.36 136.734 178.101 140.074 181.509C143.414 184.916 152.327 186.361 158.612 184.781C164.919 183.213 164.648 171.354 161.963 170.768Z" fill="#FFBB83"/>
<path d="M144.937 171.163C139.611 168.24 139.408 161.708 139.374 158.808C139.363 157.815 142.443 156.935 143.244 158.424C144.057 159.914 146.031 167.552 149.156 168.985C152.282 170.407 147.103 172.359 144.937 171.163Z" fill="#FFBB83"/>
<path d="M155.351 172.155C150.025 169.233 149.822 162.7 149.788 159.801C149.777 158.808 152.857 157.928 153.658 159.417C154.471 160.906 156.445 168.545 159.57 169.978C162.707 171.399 157.517 173.34 155.351 172.155Z" fill="#FFBB83"/>
<path d="M141.303 175.349C135.538 173.419 134.195 167.022 133.642 164.167C133.451 163.197 136.328 161.787 137.388 163.095C138.449 164.415 141.744 171.58 145.072 172.438C148.4 173.306 143.639 176.138 141.303 175.349Z" fill="#FFBB83"/>
<path d="M143.165 183.314C138.11 182.694 133.789 177.65 132.379 175.111C131.893 174.243 134.173 171.997 135.594 172.923C137.016 173.836 142.398 179.613 145.828 179.376C149.269 179.139 145.625 183.619 143.165 183.314Z" fill="#FFBB83"/>
<path d="M208.549 113.947C208.561 113.078 208.978 112.367 209.474 112.367C209.971 112.367 210.377 113.067 210.355 113.947C210.343 114.816 209.926 115.527 209.429 115.527C208.933 115.527 208.527 114.816 208.549 113.947Z" fill="#604748"/>
<path d="M208.178 108.78L211.438 109.231C211.709 109.265 211.901 109.524 211.856 109.806L211.698 110.856C211.653 111.138 211.404 111.329 211.122 111.296L207.862 110.844C207.591 110.81 207.399 110.551 207.444 110.269L207.602 109.22C207.647 108.937 207.895 108.746 208.178 108.78Z" fill="#892129"/>
<path d="M202.389 114.094C202.4 113.225 202.818 112.514 203.314 112.514C203.811 112.514 204.217 113.213 204.194 114.094C204.183 114.962 203.765 115.673 203.269 115.673C202.772 115.662 202.378 114.962 202.389 114.094Z" fill="#604748"/>
<path d="M201.802 108.893L204.408 108.859C204.623 108.859 204.803 109.085 204.803 109.367L204.815 110.427C204.815 110.71 204.645 110.935 204.42 110.946L201.813 110.98C201.599 110.98 201.419 110.755 201.419 110.473L201.407 109.412C201.407 109.13 201.588 108.893 201.802 108.893Z" fill="#892129"/>
<path d="M206.868 113.688C205.56 116.08 204.962 117.682 205.537 118.528C205.887 119.047 206.541 119.137 207.072 119.115V119.171C207.072 119.171 205.345 119.679 204.702 118.867C204.07 118.043 205.018 116.339 206.868 113.688Z" fill="#EF7A62"/>
<path d="M203.224 122.872L203.156 122.624L209.272 122.466L209.226 122.973L203.224 122.872Z" fill="#ED7656"/>
<path d="M204.578 124.181C204.6 123.989 204.984 124.079 205.537 124.124C206.079 124.158 206.586 124.136 206.564 124.327C206.541 124.519 206.135 124.813 205.593 124.767C205.04 124.734 204.555 124.384 204.578 124.181Z" fill="#ED7656"/>
<path d="M255.317 75.2129L261.015 77.2325L251.018 105.474L245.32 103.454C242.24 102.36 240.627 98.9859 241.721 95.9057L247.769 78.8121C248.863 75.7319 252.237 74.1185 255.317 75.2129Z" fill="#3A2935"/>
<path d="M291.93 123.594H294.965L306.755 341.523H301.43L291.93 123.594Z" fill="#3A2935"/>
<path d="M271.384 119.036H268.348L238.302 341.523H243.628L271.384 119.036Z" fill="#3A2935"/>
<path d="M284.574 119.036H281.528L272.456 341.523H277.782L284.574 119.036Z" fill="#3A2935"/>
<path d="M266.255 136.91H295.692V114.469H266.255V136.91Z" fill="#3A2935"/>
<path d="M263.922 170.849H295.683V168.468H263.922V170.849Z" fill="#3A2935"/>
<path d="M261.071 70.1021L326.94 93.4126L312.137 135.227L246.268 111.916C245.343 111.589 244.857 110.574 245.185 109.649L258.792 71.1853C259.119 70.2601 260.134 69.7749 261.071 70.1021Z" fill="#4C3845"/>
<path d="M287.89 79.5907L268.495 72.7307V119.78L287.89 126.652V79.5907Z" fill="#564150"/>
<path d="M301.709 131.513L312.122 135.199L326.926 93.3767L316.513 89.6907L301.709 131.513Z" fill="#3A2935"/>
<path d="M258.798 93.3599L306.184 110.128L312.398 92.5678L265.013 75.7993L258.798 93.3599Z" fill="#3A2935"/>
<path d="M264.425 94.0937L305.269 108.547L310.482 93.816L269.638 79.3624L264.425 94.0937Z" fill="#4C3845"/>
<path d="M286.153 85.2094L273.245 80.6399V97.2596L286.153 101.818V85.2094Z" fill="#564150"/>
<path d="M309.874 116.482L315.458 118.459L322.424 98.7814L316.84 96.8048L309.874 116.482Z" fill="#659AB7"/>
</svg>
