<svg width="160" height="200" viewBox="0 0 160 200" fill="none" xmlns="http://www.w3.org/2000/svg">
<path d="M141.606 10.2474L135.927 12.2563L141.513 28.0478L147.192 26.0389C147.531 25.9202 147.709 25.5388 147.591 25.1997L142.437 10.6543C142.318 10.3067 141.945 10.1287 141.606 10.2474Z" fill="#F7E7C1"/>
<path d="M143.031 81.8475H114.601V84.5599H143.031V81.8475Z" fill="#3A2935"/>
<path d="M119.424 32.7098H117.135L108.277 196.423H112.278L119.424 32.7098Z" fill="#3A2935"/>
<path d="M134.851 29.2769H137.131L159.704 196.423H155.711L134.851 29.2769Z" fill="#3A2935"/>
<path d="M124.95 29.2769H127.231L134.046 196.423H130.053L124.95 29.2769Z" fill="#3A2935"/>
<path d="M138.708 25.8524H116.593V42.7119H138.708V25.8524Z" fill="#3A2935"/>
<path d="M114.889 21.4447L112.024 14.1126C111.422 12.5699 112.21 10.8323 113.761 10.2728L120.644 7.78925L121.229 9.39975L115.084 11.6206C114.033 12.002 113.499 13.1718 113.906 14.2144L116.491 20.8175L114.889 21.4447Z" fill="#3A2935"/>
<path d="M134.452 0.0926468L115.542 6.7805C114.711 7.07718 114.279 7.98415 114.575 8.81483L115.66 11.8833C115.957 12.714 116.864 13.1463 117.695 12.8496L136.605 6.16174C137.436 5.86507 137.868 4.95808 137.572 4.12739L136.487 1.05894C136.199 0.236732 135.283 -0.204027 134.452 0.0926468Z" fill="#3A2935"/>
<path d="M138.506 8.55924L104.026 20.7609L111.579 42.104L146.059 29.9024L138.506 8.55924Z" fill="#604959"/>
<path d="M138.513 8.55206L104.031 20.7581L141.946 18.266L138.513 8.55206Z" fill="#6D5467"/>
<path d="M111.822 17.9978L104.023 20.7576L111.576 42.1008L119.375 39.3409L111.822 17.9978Z" fill="#3A2935"/>
<path d="M110.268 20.3245L106.073 21.809L111.76 37.8783L115.955 36.3937L110.268 20.3245Z" fill="#69B0B7"/>
<path d="M110.155 21.3222L107.869 22.1305L112.905 36.3714L115.191 35.5632L110.155 21.3222Z" fill="#89C4CE"/>
<path d="M136.546 11.7627L115.043 19.3721L118.17 28.2098L139.673 20.6004L136.546 11.7627Z" fill="#493744"/>
<path d="M134.069 13.3934L115.819 19.8519L118.296 26.8518L136.546 20.3932L134.069 13.3934Z" fill="#3A2935"/>
<path d="M134.13 0.406243L118.212 6.03455C117.754 6.1956 117.517 6.69572 117.678 7.15344L118.415 9.23863C118.576 9.69635 119.076 9.9337 119.534 9.77264L135.453 4.14433C135.91 3.98328 136.148 3.48317 135.987 3.02544L135.249 0.94026C135.088 0.482535 134.588 0.245192 134.13 0.406243Z" fill="#493744"/>
<path d="M114.347 70.7774C117.152 72.1675 118.958 76.7024 117.695 78.279C116.432 79.8472 112.066 80.2371 111.21 79.4488C110.354 78.6435 113.44 70.3197 114.347 70.7774Z" fill="#FF9D66"/>
<path d="M102.785 72.9135C106.209 70.8368 113.033 69.9552 114.313 70.5825C115.228 71.0317 111.253 75.8802 113.889 78.2536C114.855 79.1267 112.244 81.3051 111.541 81.4916C109.083 82.1358 102.607 81.6441 102.607 81.6441L102.785 72.9135Z" fill="#FFBB83"/>
<path d="M78.1947 120.975C77.7285 120.407 76.3384 120.78 75.1008 121.797C73.8548 122.822 73.5412 123.797 74.0074 124.365C74.4736 124.933 75.5416 124.874 76.7876 123.848C78.0337 122.831 78.6609 121.542 78.1947 120.975Z" fill="#FF9D66"/>
<path d="M78.4406 122.933C76.2706 122.933 74.7957 122.204 73.8379 121.407C71.8629 119.779 70.9644 116.931 71.4814 113.973C71.9561 111.303 73.5243 109.192 75.584 108.463L76.2452 110.345C74.8635 110.837 73.787 112.354 73.4395 114.321C73.1259 116.084 73.3971 118.466 75.1009 119.864C76.7622 121.237 79.4069 121.288 82.7466 120.008L83.4586 121.873C81.4836 122.636 79.8222 122.933 78.4406 122.933Z" fill="#9CB5B3"/>
<path d="M19.7754 115.889H0L11.8415 143.149H31.6169L19.7754 115.889Z" fill="#8E4230"/>
<path d="M38.4066 145.505C35.9315 144.607 29.5318 143.666 24.2001 145.624C18.8685 147.582 16.6223 151.71 19.0974 152.6C21.5725 153.499 27.9043 152.634 33.236 150.667C38.5676 148.709 40.8817 146.395 38.4066 145.505Z" fill="#D8C198"/>
<path d="M30.9558 157.279H59.5467L53.7319 133.842L19.3262 141.988C19.3177 141.988 20.818 157.279 30.9558 157.279Z" fill="#543168"/>
<path d="M46.4167 170.078H26.3276V171.748H46.4167V170.078Z" fill="#472E2A"/>
<path d="M39.4321 158.61H41.5936L61.2927 200H59.1313L39.4321 158.61Z" fill="#472E2A"/>
<path d="M52.2315 158.61H50.07L34.448 200H36.6095L52.2315 158.61Z" fill="#472E2A"/>
<path d="M20.6484 158.61H22.8099L42.509 200H40.3476L20.6484 158.61Z" fill="#472E2A"/>
<path d="M33.4479 158.61H31.2864L15.6644 200H17.8259L33.4479 158.61Z" fill="#472E2A"/>
<path d="M55.8934 156.279H15.3339V160.102H55.8934V156.279Z" fill="#8E4230"/>
<path d="M67.9043 78.491C76.296 76.6008 104.327 72.3795 104.327 72.3795L103.921 81.3814C103.921 81.3814 77.3809 95.7405 65.4377 97.0967C53.4945 98.4529 67.9043 78.491 67.9043 78.491Z" fill="#FFBB83"/>
<path d="M75.2279 85.4839L73.9904 77.2957C71.5237 77.745 69.3962 78.1518 67.9043 78.4909C67.9043 78.4909 53.4945 98.4528 65.4377 97.0966C77.3809 95.7404 103.921 81.3813 103.921 81.3813L75.2279 85.4839Z" fill="#FF9D66"/>
<path d="M45.9165 79.8556C55.9525 78.8469 73.3546 76.7702 73.3546 76.7702L72.4307 100.063L56.5205 103.462L45.9165 79.8556Z" fill="#F9E6C5"/>
<path d="M56.5207 103.462L72.4308 100.063L72.8377 89.7984C69.2607 91.6208 60.3011 94.3587 52.0112 93.4263L56.5207 103.462Z" fill="#EAD2B0"/>
<path d="M65.8616 195.677C65.8616 195.677 84.3147 145.98 83.9756 143.98C83.645 141.988 69.5064 127.578 53.7234 133.842C37.9403 140.097 55.0542 158.44 55.0542 158.44L63.7001 164.755L65.1919 195.669H65.8616V195.677Z" fill="#68417C"/>
<path d="M65.7767 137.707C60.7926 135.393 57.3597 134.35 53.6809 133.859C37.9827 140.14 55.0541 158.44 55.0541 158.44L63.7 164.755L65.1919 195.669H65.853C65.853 195.669 73.4394 160.932 76.2451 151.286C76.1264 146.056 72.49 140.826 65.7767 137.707Z" fill="#543168"/>
<path d="M37.1859 153.787L93.8675 198L94.6982 197.669C94.6982 197.669 62.632 138.919 60.5384 137.334C53.0622 131.638 35.2703 138.495 35.2703 138.495L37.1859 153.787Z" fill="#68417C"/>
<path d="M54.0624 156.694C46.6625 142.979 57.9361 135.944 57.9361 135.944C56.4443 135.359 54.5371 135.181 52.5705 135.071L43.5093 139.402L43.6788 149.125L54.0624 156.694Z" fill="#543168"/>
<path d="M59.7332 161.492C52.2146 152.397 46.8152 143.166 44.357 135.927C39.322 136.944 35.2788 138.495 35.2788 138.495L37.1945 153.787L93.8761 198L94.6644 197.686C83.7638 188.82 68.6927 172.333 59.7332 161.492Z" fill="#543168"/>
<path d="M18.1565 151.964C28.6248 140.996 59.1822 132.443 59.1822 132.443C59.1822 132.443 54.2235 107.243 60.7079 96.944C67.1924 86.6368 50.5702 69.1839 31.7865 83.6446C13.7403 97.5374 11.3414 137.834 18.1565 151.964Z" fill="#F9E6C5"/>
<path d="M31.7864 83.6446C30.1165 84.933 28.5823 86.4503 27.1667 88.1456C30.3454 91.4429 35.4821 93.6976 41.2969 93.9095C50.96 94.257 58.7922 88.8236 58.7922 81.7713C58.7922 81.0084 58.682 80.254 58.504 79.5166C55.7407 79.2453 53.0452 78.9826 50.7142 78.7283C45.4164 77.3127 38.754 78.279 31.7864 83.6446Z" fill="#EAD2B0"/>
<path d="M40.7801 95.325C42.1532 99.9107 43.5857 109.659 45.0183 119.576L39.6357 116.601L40.7801 95.325Z" fill="#EAD2B0"/>
<path d="M28.5824 110.947C28.5824 99.1055 27.0651 86.2892 35.9399 80.9491C34.5752 81.6865 33.1851 82.5681 31.7865 83.6446C13.7403 97.5374 11.3414 137.834 18.1565 151.964C22.1149 147.819 30.5574 143.301 37.525 140.182C33.0156 132.681 28.5824 122.755 28.5824 110.947Z" fill="#EAD2B0"/>
<path d="M24.0136 133.715L37.4826 127.112L42.6532 114.956L23.5813 131.477L24.0136 133.715Z" fill="#C1A687"/>
<path d="M40.1781 101.665C38.1777 119.796 46.6371 118.186 46.6371 118.186L40.4663 138.707C35.7025 138.114 23.3101 131.553 23.3101 122.017C23.3016 113.024 40.1781 101.665 40.1781 101.665Z" fill="#FF9D66"/>
<path d="M24.0137 133.715C17.8598 121.916 18.2243 100.089 24.8782 91.231C31.5322 82.3732 35.4398 81.8137 39.1016 88.2982C42.7549 94.7826 42.6532 114.956 42.6532 114.956L24.0137 133.715Z" fill="#F9E6C5"/>
<path d="M26.2853 109.642C25.3359 97.3425 28.006 86.8317 32.4222 84.2125C30.3115 84.95 27.8703 87.2386 24.8697 91.231C18.2157 100.089 17.8512 121.916 24.0051 133.723L30.5234 127.162C28.4044 122.729 26.8277 116.55 26.2853 109.642Z" fill="#EFD5B6"/>
<path d="M35.6516 81.0932C47.7644 90.0019 51.9771 90.9512 51.9771 90.9512C51.9771 90.9512 53.2655 84.1023 53.5114 79.1521C48.7731 76.9398 42.4412 77.3212 35.6516 81.0932Z" fill="#68417C"/>
<path d="M51.0703 89.0864C41.848 84.6024 37.1521 80.3133 37.1521 80.3133L45.5861 65.0304L55.3085 65.7763L53.0623 79.1944L51.0703 89.0864Z" fill="#ED7656"/>
<path d="M61.0893 67.2004C59.6229 62.9452 57.8768 55.13 56.6307 54.7994C55.3847 54.4688 47.8238 55.3843 46.2387 57.5458C44.6621 59.7073 46.3235 68.4295 48.3154 69.9298C50.3158 71.4301 61.0893 67.2004 61.0893 67.2004Z" fill="#FFBB83"/>
<path d="M54.2319 61.8179C55.7492 60.9109 57.3258 60.2497 58.8685 59.8344C58.0633 57.1728 57.275 54.9774 56.6308 54.7994C55.3847 54.4688 47.8238 55.3843 46.2387 57.5458C44.8655 59.4275 45.9505 66.2934 47.5695 69.0143C48.7477 66.3443 51.0618 63.7166 54.2319 61.8179Z" fill="#FF9D66"/>
<path d="M43.1704 58.6308C42.9245 67.4377 44.1536 76.8889 46.4761 78.4655C48.8071 80.0421 59.9536 80.3218 64.3613 76.2447C65.7006 75.0072 60.8691 66.0222 60.8691 66.0222C60.8691 66.0222 51.723 68.5142 49.7311 66.8529C47.7391 65.1915 47.1543 56.7999 47.1543 56.7999L43.1704 58.6308Z" fill="#773D2B"/>
<path d="M46.1117 66.9715C46.9593 66.0984 46.8491 64.437 45.8659 63.2758C44.8826 62.106 43.3992 61.8772 42.5516 62.7502C41.704 63.6233 41.8142 65.2847 42.7974 66.4459C43.7892 67.6157 45.2725 67.853 46.1117 66.9715Z" fill="#FFBB83"/>
<path d="M43.1448 60.538C41.5936 56.215 41.619 54.24 43.0261 52.2481C44.4417 50.2561 50.96 47.5691 53.3758 48.8236C55.7831 50.0696 57.3004 55.5539 57.3004 55.5539C52.2823 55.8251 47.6034 57.6899 43.1448 60.538Z" fill="#CE3484"/>
<path d="M45.7725 54.6468C45.7725 52.2226 47.1796 50.0866 49.2987 48.8575C46.7049 49.5271 43.8992 51.0105 43.0262 52.2396C41.6106 54.2315 41.5937 56.2065 43.1448 60.5295C44.4078 59.7242 45.6962 59.0037 47.0016 58.368C46.2218 57.3 45.7725 56.02 45.7725 54.6468Z" fill="#B7297A"/>
<path d="M47.2898 58.2239C52.435 53.7483 67.4212 47.2215 74.126 48.0098C75.1856 48.137 58.1057 57.478 58.1057 57.478C56.7494 55.8929 53.0876 56.1895 47.2898 58.2239Z" fill="#423231"/>
<path d="M70.6338 100.267L90.0023 138.868L108.506 121.246L72.0494 98.8513L70.6338 100.267Z" fill="#A9C4C2"/>
<path d="M100.182 129.18L70.7186 100.19L70.6338 100.267L90.0023 138.868L100.182 129.18Z" fill="#9CB5B3"/>
<path d="M7.73051 138.436H5.56055L14.9185 157.779H17.08L7.73051 138.436Z" fill="#472E2A"/>
<path d="M19.1991 138.436H17.0376L26.3871 157.779H28.5485L19.1991 138.436Z" fill="#472E2A"/>
<path d="M29.625 156.279H10.8413V160.102H29.625V156.279Z" fill="#A55841"/>
<path d="M22.5133 136.834H17.5715V140.657H22.5133V136.834Z" fill="#E07861"/>
<path d="M93.8251 200H102.674C102.674 200 95.8086 196.609 94.1557 196.694C92.5198 196.77 93.8251 200 93.8251 200Z" fill="#F2E0BD"/>
<path d="M63.9375 196.737L65.7854 200H70.8373C70.8373 200 67.0822 197.915 66.082 193.99C65.6497 192.329 63.9375 196.737 63.9375 196.737Z" fill="#F2E0BD"/>
<path d="M37.203 137.224C32.8207 134.147 36.5504 122.187 41.2887 119.618C46.0354 117.05 68.7267 116.457 68.7267 116.457L70.778 124.314C70.778 124.314 48.6885 145.293 37.203 137.224Z" fill="#FFBB83"/>
<path d="M43.8145 123.975C42.6109 122.933 42.221 121.17 42.3735 119.161C41.9497 119.305 41.4581 119.093 41.1614 119.254C36.4147 121.822 32.168 134.257 36.5503 137.334C48.0443 145.404 70.7779 124.314 70.7779 124.314C70.7779 124.314 50.2735 129.595 43.8145 123.975Z" fill="#FF9D66"/>
<path d="M102.649 123.39L105.641 120.534L77.7117 103.378L102.649 123.39Z" fill="#C7E0DD"/>
<path d="M45.5182 66.5053C46.0692 65.9374 45.9929 64.8609 45.3571 64.098C44.7214 63.3436 43.7551 63.1826 43.2041 63.7589C42.6532 64.3269 42.7295 65.4034 43.3652 66.1662C44.0009 66.9291 44.9672 67.0732 45.5182 66.5053Z" fill="#ED7656"/>
<path d="M45.6625 66.7257C46.0778 66.3019 46.0185 65.4966 45.5438 64.9287C45.0691 64.3608 44.3486 64.2506 43.9333 64.6744C43.5179 65.0983 43.5773 65.9035 44.0519 66.4714C44.5266 67.0393 45.2471 67.158 45.6625 66.7257Z" fill="#FFBB83"/>
<path d="M67.6077 116.635C70.3879 114.185 72.5155 112.939 74.4227 114.016C76.3384 115.092 78.2456 120.246 78.1608 120.788C78.076 121.331 72.507 124.611 69.0995 124.484C65.692 124.365 67.6077 116.635 67.6077 116.635Z" fill="#FFBB83"/>
<path d="M17.9022 136.834H2.73792V140.657H17.9022V136.834Z" fill="#A55841"/>
<path d="M103.539 81.6102C109.515 81.339 116.127 83.0427 117.262 83.3309C118.39 83.6276 119.822 81.2542 118.746 80.8813C117.669 80.5083 112.829 76.9313 109.684 77.2025C106.54 77.4653 103.539 81.6102 103.539 81.6102Z" fill="#FFBB83"/>
<path d="M111.024 70.8792C116.754 69.845 123.764 69.5738 124.357 69.845C124.95 70.1248 124.815 72.3541 124.179 72.4812C123.543 72.6168 113.677 73.3373 112.27 74.2358C110.854 75.1428 109.091 71.2352 111.024 70.8792Z" fill="#FFBB83"/>
<path d="M53.6134 62.8265C53.4947 62.0806 53.0285 61.5042 52.5708 61.5381C52.113 61.572 51.8418 62.2078 51.9605 62.9537C52.0791 63.6996 52.5453 64.276 53.0031 64.2421C53.4608 64.2082 53.732 63.5724 53.6134 62.8265Z" fill="#604748"/>
<path d="M52.8927 58.7833L50.0616 59.5632C49.8243 59.631 49.6887 59.8768 49.7649 60.1057L50.0362 60.9957C50.1125 61.233 50.3583 61.3686 50.5956 61.3093L53.4267 60.5295C53.6641 60.4617 53.7997 60.2159 53.7234 59.987L53.4522 59.097C53.3759 58.8511 53.1301 58.7155 52.8927 58.7833Z" fill="#893F33"/>
<path d="M58.7837 61.8772C58.6396 61.1313 58.1565 60.5719 57.7072 60.6143C57.258 60.6651 57.0037 61.3008 57.1478 62.0468C57.2919 62.7927 57.7751 63.3521 58.2243 63.3097C58.682 63.2674 58.9278 62.6232 58.7837 61.8772Z" fill="#604748"/>
<path d="M58.1906 58.1307L55.8342 58.5206C55.6392 58.5545 55.5121 58.7749 55.546 59.0207L55.6986 59.9361C55.7409 60.1819 55.9359 60.3515 56.1309 60.3176L58.4873 59.9276C58.6823 59.8937 58.8094 59.6734 58.7755 59.4275L58.6229 58.5121C58.589 58.2663 58.3941 58.0968 58.1906 58.1307Z" fill="#893F33"/>
<path d="M56.0035 62.2162C57.2156 64.3099 57.7412 65.7 57.1224 66.429C56.7325 66.8867 56.0713 66.9546 55.5288 66.9291V66.98C55.5288 66.98 57.2665 67.4292 57.9615 66.7257C58.6396 66.0222 57.7496 64.5303 56.0035 62.2162Z" fill="#ED7656"/>
<path d="M59.4449 68.1667L53.5962 69.0567C53.5962 69.0567 54.0539 71.464 56.8596 71.7183C59.6653 71.9726 59.4449 68.1667 59.4449 68.1667Z" fill="#422931"/>
<path d="M58.7669 70.023C59.0042 69.2771 58.9618 68.5142 58.9618 68.5142L54.2405 69.2347C54.2405 69.2347 54.3761 69.9213 54.961 70.5231L58.7669 70.023Z" fill="#FFEFDC"/>
</svg>
