<svg width="256" height="247" viewBox="0 0 256 247" fill="none" xmlns="http://www.w3.org/2000/svg">
<path fill-rule="evenodd" clip-rule="evenodd" d="M129.929 6.53315C157.522 4.46073 188.13 -7.84042 210.897 7.88565C233.71 23.6435 233.821 56.4592 240.984 83.244C247.71 108.395 261.718 134.911 251.24 158.744C240.924 182.207 211.234 187.804 189.233 200.953C169.701 212.627 151.897 225.313 129.929 231.247C100.642 239.159 68.34 255.261 41.6621 240.817C14.7917 226.269 5.07865 191.55 0.744178 161.303C-3.13915 134.204 8.94879 108.742 19.0917 83.3146C28.5195 59.6798 36.424 33.9091 57.3411 19.419C78.0486 5.07406 104.809 8.41987 129.929 6.53315Z" fill="#5C5C5C" fill-opacity="0.25"/>
<path d="M107.311 86.2534C109.694 86.792 112.264 85.9025 112.297 87.9915C112.322 90.0805 106.675 88.2363 106.675 88.2363L107.311 86.2534Z" fill="#FFBB83"/>
<path d="M108.144 87.3386C108.307 85.5516 106.74 84.3031 103.084 84.1317C99.4287 83.9604 96.336 85.2741 96.1727 87.0694C96.0095 88.8564 98.8329 90.4476 102.489 90.619C106.144 90.7822 107.98 89.1257 108.144 87.3386Z" fill="#FFBB83"/>
<path d="M164.302 95.4008C155.293 92.7895 133.4 94.7724 131.058 95.1559C128.716 95.5476 118.483 105.217 120.205 108.359C125.966 118.877 143.559 117.702 150.772 117.743C158.125 117.784 167.525 114.161 170.895 109.338C174.257 104.516 168.855 96.7145 164.302 95.4008Z" fill="#FF9A3E"/>
<path d="M141.984 104.475C152.902 104.475 163.257 100.509 168.113 97.8326C166.913 96.6494 165.575 95.7599 164.302 95.3927C155.293 92.7815 133.399 94.7644 131.058 95.1479C129.94 95.3356 127.026 97.6449 124.464 100.338C129.442 101.586 134.991 104.475 141.984 104.475Z" fill="#FFBB4D"/>
<path d="M100.571 162.453H97.8374V198.455H100.571V162.453Z" fill="#776271"/>
<path d="M72.7615 162.453H70.0278V198.456H72.7615V162.453Z" fill="#776271"/>
<path d="M100.563 164.591L97.8374 164.289V175.427L100.563 175.737V164.591Z" fill="#685263"/>
<path d="M72.7615 161.473L70.0278 161.163V172.31L72.7615 172.612V161.473Z" fill="#685263"/>
<path d="M102.758 193.95H95.1528V198.985H102.758V193.95Z" fill="#3A2B35"/>
<path d="M75.3318 193.95H67.7266V198.985H75.3318V193.95Z" fill="#3A2B35"/>
<path d="M105.443 233.111H91.7258V242.503H105.443V233.111Z" fill="#2B1F28"/>
<path d="M93.6519 238.318C93.6437 238.318 93.6355 238.318 93.6274 238.318H92.3789C92.3707 238.318 92.3625 238.318 92.3544 238.318C89.9553 238.318 88.0132 240.26 88.0132 242.659C88.0132 245.05 89.9472 246.984 92.3299 247H92.3544H93.6519C96.0509 247 97.993 245.058 97.993 242.659C97.993 240.26 96.0509 238.318 93.6519 238.318Z" fill="#2B1F28"/>
<path d="M104.75 238.317C104.742 238.317 104.734 238.317 104.725 238.317H103.477C103.469 238.317 103.461 238.317 103.452 238.317C101.053 238.317 99.1113 240.259 99.1113 242.658C99.1113 245.049 101.045 246.983 103.428 247H103.444H104.742C107.141 247 109.083 245.057 109.083 242.658C109.083 240.259 107.141 238.317 104.75 238.317Z" fill="#2B1F28"/>
<path d="M131.702 233.388H43.4011V237.354H131.702V233.388Z" fill="#2B1F28"/>
<path d="M50.1498 234.866H36.4326V242.504H50.1498V234.866Z" fill="#2B1F28"/>
<path d="M133.195 233.111H119.478V242.503H133.195V233.111Z" fill="#2B1F28"/>
<path d="M86.4784 233.111H72.7612V242.503H86.4784V233.111Z" fill="#2B1F28"/>
<path d="M198.917 142.354L167.084 156.724L206.138 244.584H206.832C206.832 244.584 208.595 158.062 198.917 142.354Z" fill="#3A2B35"/>
<path d="M198.917 142.354L187.525 150.229L206.138 244.584H206.832C206.832 244.584 208.595 158.062 198.917 142.354Z" fill="#2D2029"/>
<path d="M199.904 146.214L160.687 160.037L154.575 244.584H155.269C155.269 244.584 201.512 161.326 199.904 146.214Z" fill="#3A2B35"/>
<path d="M199.904 146.214L160.687 160.037L160.132 167.748L185.6 167.275L155.228 244.592H155.276C155.268 244.584 201.512 161.326 199.904 146.214Z" fill="#2D2029"/>
<path d="M192.185 119.53L154.412 127.731L157.308 160.519C171.833 159.605 188.717 154.921 200.867 146.532C200.867 146.54 194.119 123.072 192.185 119.53Z" fill="#FFBB4D"/>
<path d="M164.628 152.701C170.544 153.477 175.865 154.798 179.904 156.357C187.485 154.023 194.772 150.751 200.867 146.54C200.867 146.54 194.119 123.072 192.185 119.539L154.412 127.74L156.558 152.057C159.104 152.122 161.813 152.334 164.628 152.701Z" fill="#FF9A3E"/>
<path d="M90.7545 158.054H79.8281V200.593H90.7545V158.054Z" fill="#3A2B35"/>
<path d="M90.7627 161.702H79.8281V168.989L90.7627 196.097V161.702Z" fill="#2B1F28"/>
<path d="M135.766 233.013H34.8252V235.747H135.766V233.013Z" fill="#3A2B35"/>
<path d="M116.483 197.06H54.1155L69.0077 233.095L135.358 233.119L135.766 233.013L116.483 197.06Z" fill="#3A2B35"/>
<path d="M97.6743 144.125H72.9165V155.696H97.6743V144.125Z" fill="#3A2B35"/>
<path d="M97.6743 144.019H72.9165V149.364L97.6743 158.266V144.019Z" fill="#2B1F28"/>
<path d="M103.574 154.896H67.0166C65.7518 154.896 64.7236 155.924 64.7236 157.189V162.885C64.7236 164.15 65.7518 165.178 67.0166 165.178H103.574C104.839 165.178 105.867 164.15 105.867 162.885V157.189C105.875 155.924 104.847 154.896 103.574 154.896Z" fill="#4C3845"/>
<path d="M106.193 135.924H64.3972V144.868C64.3972 145.969 65.2867 146.859 66.3883 146.859H104.202C105.304 146.859 106.193 145.969 106.193 144.868V135.924Z" fill="#2B1F28"/>
<path d="M88.2415 96.3638H42.096C37.9914 96.3638 34.6621 99.6931 34.6621 103.798V129.584C34.6621 133.688 37.9914 137.017 42.096 137.017H88.2415V96.3638Z" fill="#F7E7C1"/>
<path d="M113.293 87.7632H54.1403C53.0631 87.7632 52.1819 88.6363 52.1819 89.7216V101.374H115.243V89.7216C115.251 88.6363 114.37 87.7632 113.293 87.7632Z" fill="#4C3845"/>
<path d="M123.477 87.7632H97.4376C96.3605 87.7632 95.4792 88.6363 95.4792 89.7216V101.374H125.427V89.7216C125.427 88.6363 124.554 87.7632 123.477 87.7632Z" fill="#3A2B35"/>
<path d="M104.749 92.1533H43.3522C42.4301 92.1533 41.6875 92.8959 41.6875 93.818V139.564C41.6875 140.486 42.4301 141.228 43.3522 141.228H104.749V92.1533Z" fill="#5B4352"/>
<path d="M66.9594 101.293C80.4155 97.0902 93.5043 95.295 104.749 95.6622V92.1533H44.3151C42.8626 92.1533 41.6875 93.3284 41.6875 94.7809V112.292C49.0642 108 57.6079 104.214 66.9594 101.293Z" fill="#684E5F"/>
<path d="M41.6797 136.389V138.609C41.6797 140.061 42.8547 141.236 44.3072 141.236H104.741V136.389H41.6797Z" fill="#4C3845"/>
<path d="M131.988 92.1533H92.9333C92.0846 92.1533 91.3992 92.8388 91.3992 93.6874V139.711C91.3992 140.559 92.0846 141.245 92.9333 141.245H131.988C132.836 141.245 133.522 140.559 133.522 139.711V93.6874C133.522 92.8388 132.836 92.1533 131.988 92.1533Z" fill="#473240"/>
<path d="M129.181 95.9805L97.4214 121.391L106.691 141.228H131.115C132.445 141.228 133.522 140.151 133.522 138.821V103.618C133.522 102.288 130.511 95.9805 129.181 95.9805Z" fill="#3A2B35"/>
<path d="M128.463 95.05H98.5315C97.3972 95.05 96.4751 95.9721 96.4751 97.1064V120.297C96.4751 121.432 97.3972 122.354 98.5315 122.354H128.463C129.597 122.354 130.519 121.432 130.519 120.297V97.1064C130.519 95.964 129.597 95.05 128.463 95.05Z" fill="#5B4352"/>
<path d="M126.537 96.9514H101.281C100.147 96.9514 99.2249 97.8735 99.2249 99.0078V118.38C99.2249 119.514 100.147 120.436 101.281 120.436H126.537C127.671 120.436 128.593 119.514 128.593 118.38V99.0078C128.593 97.8735 127.671 96.9514 126.537 96.9514Z" fill="#2B1F28"/>
<path d="M160.14 79.2847C160.157 79.6111 164.808 93.4343 164.808 93.4343L153.881 97.188L151.523 93.4343L160.14 79.2847Z" fill="#ED7656"/>
<path d="M146.945 103.071L153.131 149.592C153.131 149.592 180.94 153.452 200.867 135.606C200.867 135.606 189.019 87.3958 162.613 91.8839C151.311 93.8096 146.945 103.071 146.945 103.071Z" fill="#5B4352"/>
<path d="M183.698 109.787C171.246 96.2169 156.819 92.5937 151.482 101.709C146.146 110.815 151.907 129.208 164.359 142.778C166.57 145.194 168.855 147.283 171.132 149.054C179.439 147.748 189.386 144.672 198.183 137.833C196.787 128.947 191.597 118.404 183.698 109.787Z" fill="#493242"/>
<path d="M173.4 108.629C168.822 100.395 161.617 96.3067 157.317 99.4973C153.016 102.696 153.245 111.958 157.823 120.2C162.4 128.433 169.606 132.521 173.906 129.331C178.207 126.132 177.986 116.87 173.4 108.629Z" fill="#FF9A3E"/>
<path d="M149.703 99.2848C142.563 105.519 135.586 121.717 134.762 123.953C133.938 126.189 135.806 144.329 139.731 144.663C152.877 145.781 160.735 129.983 164.456 123.806C168.259 117.506 169.54 107.339 166.586 101.659C163.641 95.98 153.31 96.1269 149.703 99.2848Z" fill="#FFBB4D"/>
<path d="M166.595 101.66C165.713 99.9704 164.171 98.8035 162.36 98.0691C162.768 103.414 161.348 109.738 158.679 114.161C155.097 120.093 147.704 134.888 135.48 135.059C136.337 139.898 137.781 144.492 139.74 144.655C152.886 145.773 161.731 130.473 165.461 124.296C169.255 118.004 169.549 107.339 166.595 101.66Z" fill="#FF9A3E"/>
<path d="M89.9875 197.06L68.4448 235.747H71.2845L92.8273 197.06H89.9875Z" fill="#4C3845"/>
<path d="M53.822 197.06L32.2793 235.747H35.119L56.6617 197.06H53.822Z" fill="#4C3845"/>
<path d="M89.1553 200.87H52.9896L34.8252 235.747H70.9909L89.1553 200.87Z" fill="#4C3845"/>
<path d="M90.9995 197.06H54.1158L51.782 204.029H87.5478L90.9995 197.06Z" fill="#4C3845"/>
<path d="M155.946 246.918H146.064C146.064 246.918 152.967 243.572 154.42 243.54C155.864 243.507 155.946 246.918 155.946 246.918Z" fill="#6D5E69"/>
<path d="M209.868 246.918H203.601C203.601 246.918 205.037 243.156 205.739 243.14C206.44 243.124 209.868 246.918 209.868 246.918Z" fill="#6D5E69"/>
<path d="M74.4508 247C76.8484 247 78.792 245.056 78.792 242.659C78.792 240.261 76.8484 238.317 74.4508 238.317C72.0532 238.317 70.1096 240.261 70.1096 242.659C70.1096 245.056 72.0532 247 74.4508 247Z" fill="#4C3845"/>
<path d="M75.7565 238.317H74.4346V246.992H75.7565V238.317Z" fill="#4C3845"/>
<path d="M75.7567 247C78.1542 247 80.0979 245.056 80.0979 242.659C80.0979 240.261 78.1542 238.317 75.7567 238.317C73.3591 238.317 71.4155 240.261 71.4155 242.659C71.4155 245.056 73.3591 247 75.7567 247Z" fill="#3A2B35"/>
<path d="M78.8086 242.659C78.8086 241.296 77.707 240.194 76.3443 240.194C74.9815 240.194 73.8799 241.296 73.8799 242.659C73.8799 244.021 74.9815 245.123 76.3443 245.123C77.707 245.123 78.8086 244.021 78.8086 242.659Z" fill="#756471"/>
<path d="M85.5487 247C87.9462 247 89.8899 245.056 89.8899 242.659C89.8899 240.261 87.9462 238.317 85.5487 238.317C83.1511 238.317 81.2075 240.261 81.2075 242.659C81.2075 245.056 83.1511 247 85.5487 247Z" fill="#4C3845"/>
<path d="M86.8461 238.317H85.5242V246.992H86.8461V238.317Z" fill="#4C3845"/>
<path d="M86.8463 247C89.2439 247 91.1875 245.056 91.1875 242.659C91.1875 240.261 89.2439 238.317 86.8463 238.317C84.4487 238.317 82.5051 240.261 82.5051 242.659C82.5051 245.056 84.4487 247 86.8463 247Z" fill="#3A2B35"/>
<path d="M87.4336 245.123C88.7946 245.123 89.8979 244.02 89.8979 242.659C89.8979 241.298 88.7946 240.194 87.4336 240.194C86.0726 240.194 84.9692 241.298 84.9692 242.659C84.9692 244.02 86.0726 245.123 87.4336 245.123Z" fill="#756471"/>
<path d="M38.4729 238.317C38.4647 238.317 38.4566 238.317 38.4484 238.317H37.1999C37.1917 238.317 37.1836 238.317 37.1754 238.317C34.7763 238.317 32.8342 240.259 32.8342 242.659C32.8342 245.049 34.7682 246.983 37.1509 247H37.1673H38.4647C40.8638 247 42.8059 245.058 42.8059 242.659C42.8059 240.259 40.872 238.317 38.4729 238.317Z" fill="#2B1F28"/>
<path d="M49.5622 238.317C49.554 238.317 49.5459 238.317 49.5378 238.317H48.2892C48.2811 238.317 48.2729 238.317 48.2648 238.317C45.8657 238.317 43.9236 240.259 43.9236 242.659C43.9236 245.049 45.8575 246.983 48.2403 247H48.2648H49.5622C51.9613 247 53.9034 245.058 53.9034 242.659C53.9034 240.259 51.9613 238.317 49.5622 238.317Z" fill="#2B1F28"/>
<path d="M120.376 247C122.773 247 124.717 245.056 124.717 242.659C124.717 240.261 122.773 238.317 120.376 238.317C117.978 238.317 116.035 240.261 116.035 242.659C116.035 245.056 117.978 247 120.376 247Z" fill="#4C3845"/>
<path d="M121.681 238.317H120.359V246.992H121.681V238.317Z" fill="#4C3845"/>
<path d="M121.681 247C124.079 247 126.022 245.056 126.022 242.659C126.022 240.261 124.079 238.317 121.681 238.317C119.284 238.317 117.34 240.261 117.34 242.659C117.34 245.056 119.284 247 121.681 247Z" fill="#3A2B35"/>
<path d="M124.733 242.659C124.733 241.296 123.632 240.194 122.269 240.194C120.906 240.194 119.804 241.296 119.804 242.659C119.804 244.021 120.906 245.123 122.269 245.123C123.632 245.123 124.733 244.021 124.733 242.659Z" fill="#756471"/>
<path d="M131.466 247C133.863 247 135.807 245.056 135.807 242.659C135.807 240.261 133.863 238.317 131.466 238.317C129.068 238.317 127.125 240.261 127.125 242.659C127.125 245.056 129.068 247 131.466 247Z" fill="#4C3845"/>
<path d="M132.771 238.317H131.449V246.992H132.771V238.317Z" fill="#4C3845"/>
<path d="M132.771 247C135.169 247 137.113 245.056 137.113 242.659C137.113 240.261 135.169 238.317 132.771 238.317C130.374 238.317 128.43 240.261 128.43 242.659C128.43 245.056 130.374 247 132.771 247Z" fill="#3A2B35"/>
<path d="M133.359 245.123C134.72 245.123 135.823 244.02 135.823 242.659C135.823 241.298 134.72 240.194 133.359 240.194C131.998 240.194 130.894 241.298 130.894 242.659C130.894 244.02 131.998 245.123 133.359 245.123Z" fill="#756471"/>
<path d="M102.252 154.896H87.3599C89.3591 154.896 90.9748 156.512 90.9748 158.511V161.563C90.9748 163.562 89.3591 165.178 87.3599 165.178H102.252C104.251 165.178 105.867 163.562 105.867 161.563V158.511C105.875 156.512 104.251 154.896 102.252 154.896Z" fill="#3A2B35"/>
<path d="M122.032 98.4365H102.171C101.036 98.4365 100.114 99.3586 100.114 100.493V116.895C100.114 118.029 101.036 118.951 102.171 118.951H122.032C123.167 118.951 124.089 118.029 124.089 116.895V100.493C124.089 99.3586 123.167 98.4365 122.032 98.4365Z" fill="#62ABBC"/>
<path d="M120.262 114.014H113.269V117.907H120.262C121.339 117.907 122.212 117.033 122.212 115.956C122.204 114.887 121.331 114.014 120.262 114.014Z" fill="#94CEE0"/>
<path d="M110.159 114.014H104.717C103.64 114.014 102.766 114.887 102.766 115.964C102.766 117.041 103.64 117.914 104.717 117.914H110.159V114.014Z" fill="#94CEE0"/>
<path d="M48.1181 102.761H45.866V132.448H48.1181V102.761Z" fill="#3A2B35"/>
<path d="M51.97 102.761H49.7178V132.448H51.97V102.761Z" fill="#3A2B35"/>
<path d="M55.8293 102.761H53.5771V132.448H55.8293V102.761Z" fill="#3A2B35"/>
<path d="M74.2631 103.3H69.6526V108.335H74.2631V103.3Z" fill="#3A2B35"/>
<path d="M72.9166 104.581H70.0769V107.478H72.9166V104.581Z" fill="#EF353F"/>
<path d="M80.2606 103.3H75.6501V108.335H80.2606V103.3Z" fill="#3A2B35"/>
<path d="M78.9225 104.581H76.0828V107.478H78.9225V104.581Z" fill="#62ABBC"/>
<path d="M72.4352 233.821H31.8223V235.861H72.4352V233.821Z" fill="#756471"/>
<path d="M136.198 233.821H72.0105V235.861H136.198V233.821Z" fill="#4C3845"/>
<path d="M148.471 145.292C155.366 141.906 157.268 134.243 152.722 128.164C148.177 122.093 138.899 119.914 132.004 123.292C125.109 126.679 123.207 134.341 127.752 140.421C132.298 146.5 141.576 148.67 148.471 145.292Z" fill="#F24040"/>
<path d="M110.6 133.264C117.667 138.943 135.072 144.957 140.368 144.517C148.879 143.807 153.179 139.572 152.2 133.166C151.539 128.865 142.196 124.451 139.046 123.725C134.37 122.656 112.395 123.847 112.395 123.847L110.6 133.264Z" fill="#FFBB83"/>
<path d="M151.433 131.346C146.447 133.713 137.822 134.896 128.136 134.186C121.6 133.704 110.991 133.566 110.991 133.566C118.058 139.245 135.08 144.957 140.376 144.517C148.887 143.807 153.187 139.572 152.208 133.166C152.11 132.562 151.825 131.95 151.433 131.346Z" fill="#FF9D66"/>
<path d="M147.345 75.8653C145.24 84.6129 145.844 92.5854 146.595 93.3361C147.345 94.0868 156.077 93.1239 157.26 91.9407C158.435 90.7656 160.646 77.3422 159.569 75.6286C158.492 73.915 147.916 73.4743 147.345 75.8653Z" fill="#FFBB83"/>
<path d="M157.986 83.7316C158.377 80.6389 160.018 76.3467 159.569 75.6286C158.5 73.915 147.924 73.4743 147.345 75.8653C147.051 77.1056 146.806 78.3215 146.611 79.5128C149.744 79.1293 157.235 83.3318 157.986 83.7316Z" fill="#FF9D66"/>
<path d="M162.996 88.0405L162.588 76.4042L153.775 75.2781L154.526 84.1155L158.598 84.9723L162.996 88.0405Z" fill="#892129"/>
<path d="M147.41 75.6779L162.71 79.9375C162.71 79.9375 163.951 72.6995 163.306 71.4673C162.661 70.2351 151.735 67.8279 150.234 68.3093C148.732 68.7908 147.41 75.6779 147.41 75.6779Z" fill="#F24040"/>
<path d="M163.306 71.4671C162.906 70.7001 158.483 69.4679 154.86 68.7661C155.685 70.4308 156.182 72.5279 156.182 74.8128C156.182 75.9389 156.06 77.016 155.84 78.0197L162.71 79.9292C162.71 79.9373 163.951 72.7074 163.306 71.4671Z" fill="#D82B2B"/>
<path d="M156.239 78.1505C148.463 76.902 136.574 74.8539 136.198 73.1321C135.823 71.4185 148.055 72.9199 148.055 72.9199C148.349 74.8539 151.033 76.6001 156.239 78.1505Z" fill="#5B4352"/>
<path d="M159.561 84.0256C160.001 82.6303 159.593 81.2593 158.647 80.9574C157.708 80.6637 156.582 81.5531 156.15 82.9567C155.709 84.352 156.117 85.7229 157.064 86.0248C158.002 86.3105 159.12 85.421 159.561 84.0256Z" fill="#FFBB83"/>
<path d="M158.842 83.9848C159.12 83.1035 158.859 82.2467 158.271 82.059C157.684 81.8714 156.974 82.4344 156.704 83.3157C156.427 84.1888 156.688 85.0538 157.276 85.2415C157.863 85.421 158.565 84.8579 158.842 83.9848Z" fill="#ED7656"/>
<path d="M158.1 84.8091C158.28 84.2297 158.108 83.6667 157.725 83.5443C157.333 83.4219 156.876 83.7891 156.697 84.3684C156.517 84.9478 156.689 85.5109 157.072 85.6333C157.456 85.7475 157.921 85.3803 158.1 84.8091Z" fill="#FFBB83"/>
<path d="M99.7635 87.2653C95.7813 87.4693 94.9735 88.7504 94.2962 90.4478C94.0759 91.0026 92.4846 91.1658 92.4846 90.3661C92.4846 89.5583 93.7739 85.6659 97.7479 85.2987C101.73 84.9315 99.7635 87.2653 99.7635 87.2653Z" fill="#FFBB83"/>
<path d="M103.182 87.2651C99.2001 87.4691 97.7965 88.685 97.7149 90.4475C97.6904 91.0432 95.9033 91.1656 95.9033 90.3659C95.9033 89.5581 95.8625 86.3838 99.8447 86.0247C103.819 85.6575 103.182 87.2651 103.182 87.2651Z" fill="#FFBB83"/>
<path d="M106.879 87.2651C102.897 87.4691 101.493 88.685 101.412 90.4475C101.387 91.0432 99.6004 91.1656 99.6004 90.3659C99.6004 89.5581 99.5596 86.3838 103.542 86.0247C107.516 85.6575 106.879 87.2651 106.879 87.2651Z" fill="#FFBB83"/>
<path d="M117.136 123.504C113.693 122.745 114.011 120.705 111.783 121.04C109.556 121.374 109.27 123.268 105.051 121.75C103.076 121.04 98.8904 128.808 101.306 131.273C103.721 133.737 110.168 134.782 114.713 133.639C119.274 132.505 119.078 123.929 117.136 123.504Z" fill="#FFBB83"/>
<path d="M104.822 123.79C100.971 121.676 100.824 116.952 100.799 114.855C100.791 114.137 103.019 113.5 103.598 114.577C104.186 115.654 105.614 121.179 107.874 122.215C110.135 123.243 106.389 124.655 104.822 123.79Z" fill="#FFBB83"/>
<path d="M112.354 124.508C108.503 122.394 108.356 117.67 108.331 115.573C108.323 114.855 110.551 114.218 111.13 115.295C111.718 116.372 113.146 121.897 115.406 122.933C117.675 123.961 113.921 125.365 112.354 124.508Z" fill="#FFBB83"/>
<path d="M102.195 126.817C98.0252 125.422 97.0542 120.795 96.6543 118.731C96.5156 118.029 98.5964 117.009 99.3635 117.956C100.131 118.91 102.513 124.092 104.921 124.712C107.328 125.34 103.884 127.389 102.195 126.817Z" fill="#FFBB83"/>
<path d="M103.542 132.578C99.8859 132.129 96.7605 128.482 95.7405 126.646C95.3896 126.018 97.038 124.394 98.0661 125.063C99.0943 125.724 102.987 129.902 105.467 129.73C107.956 129.559 105.32 132.799 103.542 132.578Z" fill="#FFBB83"/>
<path d="M150.829 82.4097C150.837 81.7814 151.139 81.2673 151.498 81.2673C151.857 81.2673 152.151 81.7733 152.135 82.4097C152.127 83.0381 151.825 83.5522 151.466 83.5522C151.107 83.5522 150.813 83.0381 150.829 82.4097Z" fill="#604748"/>
<path d="M150.561 78.6725L152.919 78.9989C153.115 79.0234 153.253 79.211 153.221 79.415L153.107 80.1739C153.074 80.3779 152.894 80.5166 152.69 80.4922L150.332 80.1658C150.136 80.1413 149.998 79.9536 150.03 79.7496L150.144 78.9907C150.177 78.7867 150.357 78.648 150.561 78.6725Z" fill="#892129"/>
<path d="M146.374 82.5157C146.382 81.8874 146.684 81.3733 147.043 81.3733C147.402 81.3733 147.696 81.8792 147.68 82.5157C147.671 83.144 147.369 83.6581 147.01 83.6581C146.651 83.65 146.366 83.144 146.374 82.5157Z" fill="#604748"/>
<path d="M145.95 78.7545L147.835 78.73C147.99 78.73 148.12 78.8932 148.12 79.0972L148.128 79.8642C148.128 80.0682 148.006 80.2314 147.843 80.2396L145.958 80.2641C145.803 80.2641 145.672 80.1009 145.672 79.8969L145.664 79.1298C145.664 78.9258 145.795 78.7545 145.95 78.7545Z" fill="#892129"/>
<path d="M149.614 82.2222C148.667 83.9521 148.235 85.1108 148.651 85.7228C148.904 86.0982 149.377 86.1635 149.761 86.1472V86.188C149.761 86.188 148.512 86.5552 148.047 85.9677C147.59 85.372 148.276 84.1398 149.614 82.2222Z" fill="#EF7A62"/>
<path d="M146.978 88.8643L146.929 88.6848L151.351 88.5706L151.319 88.9377L146.978 88.8643Z" fill="#ED7656"/>
<path d="M147.957 89.811C147.974 89.6723 148.251 89.7376 148.651 89.7703C149.043 89.7947 149.41 89.7784 149.394 89.9171C149.377 90.0559 149.083 90.268 148.692 90.2354C148.292 90.2109 147.941 89.9579 147.957 89.811Z" fill="#ED7656"/>
<path d="M184.653 54.3961L188.774 55.8568L181.544 76.2816L177.423 74.8209C175.196 74.0294 174.029 71.5895 174.82 69.3618L179.194 56.9992C179.986 54.7715 182.425 53.6046 184.653 54.3961Z" fill="#3A2935"/>
<path d="M211.133 89.387H213.328L221.855 247H218.003L211.133 89.387Z" fill="#3A2935"/>
<path d="M196.273 86.0901H194.078L172.348 247H176.199L196.273 86.0901Z" fill="#3A2935"/>
<path d="M205.813 86.0901H203.609L197.049 247H200.9L205.813 86.0901Z" fill="#3A2935"/>
<path d="M192.564 99.0173H213.854V82.7869H192.564V99.0173Z" fill="#3A2935"/>
<path d="M190.876 123.563H213.847V121.841H190.876V123.563Z" fill="#3A2935"/>
<path d="M188.815 50.6998L236.454 67.5586L225.747 97.8001L178.109 80.9412C177.44 80.7046 177.089 79.9702 177.325 79.301L187.166 51.4832C187.403 50.8141 188.137 50.4632 188.815 50.6998Z" fill="#4C3845"/>
<path d="M208.211 57.5622L194.184 52.6008V86.6285L208.211 91.5981V57.5622Z" fill="#564150"/>
<path d="M218.205 95.1139L225.736 97.7798L236.443 67.5327L228.912 64.8668L218.205 95.1139Z" fill="#3A2935"/>
<path d="M187.171 67.5205L221.441 79.6479L225.936 66.9476L191.665 54.8201L187.171 67.5205Z" fill="#3A2935"/>
<path d="M191.24 68.0513L220.78 78.5046L224.55 67.8505L195.011 57.3972L191.24 68.0513Z" fill="#4C3845"/>
<path d="M206.955 61.6259L197.619 58.321V70.3409L206.955 73.6376V61.6259Z" fill="#564150"/>
<path d="M224.111 84.2433L228.149 85.6729L233.187 71.4416L229.148 70.012L224.111 84.2433Z" fill="#659AB7"/>
</svg>
