<svg width="256" height="253" viewBox="0 0 256 253" fill="none" xmlns="http://www.w3.org/2000/svg">
<path fill-rule="evenodd" clip-rule="evenodd" d="M129.929 6.53315C157.522 4.46073 188.13 -7.84042 210.897 7.88565C233.71 23.6435 233.821 56.4592 240.984 83.244C247.71 108.395 261.718 134.911 251.24 158.744C240.924 182.207 211.234 187.804 189.233 200.953C169.701 212.627 151.897 225.313 129.929 231.247C100.642 239.159 68.34 255.261 41.6621 240.817C14.7917 226.269 5.07865 191.55 0.744178 161.303C-3.13915 134.204 8.94879 108.742 19.0917 83.3146C28.5195 59.6798 36.424 33.9091 57.3411 19.419C78.0486 5.07406 104.809 8.41987 129.929 6.53315Z" fill="#5C5C5C" fill-opacity="0.25"/>
<path d="M196.806 40.4771L190.445 42.7271L196.701 60.4136L203.062 58.1636C203.442 58.0307 203.641 57.6035 203.508 57.2238L197.736 40.9328C197.603 40.5436 197.185 40.3442 196.806 40.4771Z" fill="#F7E7C1"/>
<path d="M198.401 120.669H166.56V123.707H198.401V120.669Z" fill="#3A2935"/>
<path d="M171.961 65.635H169.398L159.477 248.994H163.958L171.961 65.635Z" fill="#3A2935"/>
<path d="M189.24 61.79H191.793L217.075 248.993H212.603L189.24 61.79Z" fill="#3A2935"/>
<path d="M178.151 61.79H180.705L188.338 248.993H183.866L178.151 61.79Z" fill="#3A2935"/>
<path d="M193.559 57.9547H168.791V76.8374H193.559V57.9547Z" fill="#3A2935"/>
<path d="M166.882 53.018L163.673 44.8061C162.999 43.0782 163.882 41.1321 165.62 40.5055L173.328 37.7239L173.983 39.5276L167.101 42.015C165.923 42.4422 165.325 43.7523 165.781 44.92L168.676 52.3155L166.882 53.018Z" fill="#3A2935"/>
<path d="M188.793 29.1038L167.613 36.5942C166.683 36.9264 166.199 37.9422 166.531 38.8726L167.746 42.3093C168.078 43.2397 169.094 43.7238 170.024 43.3916L191.205 35.9012C192.135 35.5689 192.619 34.553 192.287 33.6227L191.072 30.186C190.749 29.2651 189.724 28.7715 188.793 29.1038Z" fill="#3A2935"/>
<path d="M193.333 38.5864L154.716 52.2522L163.175 76.1565L201.793 62.4907L193.333 38.5864Z" fill="#604959"/>
<path d="M193.341 38.5784L154.721 52.2491L197.186 49.458L193.341 38.5784Z" fill="#6D5467"/>
<path d="M163.447 49.1576L154.713 52.2487L163.172 76.153L171.907 73.0619L163.447 49.1576Z" fill="#3A2935"/>
<path d="M161.707 51.7633L157.008 53.426L163.377 71.4236L168.076 69.7609L161.707 51.7633Z" fill="#69B0B7"/>
<path d="M161.58 52.8809L159.02 53.7861L164.661 69.7359L167.22 68.8307L161.58 52.8809Z" fill="#89C4CE"/>
<path d="M191.138 42.1744L167.054 50.6969L170.557 60.5951L194.641 52.0726L191.138 42.1744Z" fill="#493744"/>
<path d="M188.364 44.0006L167.923 51.2341L170.698 59.0739L191.138 51.8404L188.364 44.0006Z" fill="#3A2935"/>
<path d="M188.432 29.455L170.604 35.7587C170.091 35.9391 169.825 36.4992 170.005 37.0119L170.831 39.3473C171.012 39.8599 171.572 40.1258 172.085 39.9454L189.913 33.6417C190.426 33.4613 190.692 32.9012 190.512 32.3885L189.686 30.0531C189.505 29.5405 188.945 29.2746 188.432 29.455Z" fill="#493744"/>
<path d="M166.275 108.271C169.417 109.828 171.439 114.907 170.025 116.673C168.61 118.429 163.721 118.866 162.762 117.983C161.803 117.081 165.259 107.758 166.275 108.271Z" fill="#FF9D66"/>
<path d="M153.325 110.663C157.161 108.337 164.803 107.35 166.237 108.052C167.262 108.556 162.809 113.986 165.762 116.644C166.844 117.622 163.92 120.062 163.132 120.271C160.379 120.992 153.126 120.441 153.126 120.441L153.325 110.663Z" fill="#FFBB83"/>
<path d="M125.785 164.491C125.263 163.855 123.706 164.273 122.32 165.412C120.924 166.561 120.573 167.653 121.095 168.289C121.617 168.925 122.813 168.858 124.209 167.71C125.604 166.571 126.307 165.127 125.785 164.491Z" fill="#FF9D66"/>
<path d="M126.06 166.684C123.63 166.684 121.978 165.868 120.905 164.976C118.693 163.153 117.687 159.963 118.266 156.65C118.797 153.659 120.554 151.295 122.861 150.479L123.601 152.587C122.054 153.137 120.848 154.837 120.459 157.039C120.108 159.014 120.411 161.681 122.32 163.248C124.18 164.786 127.142 164.843 130.883 163.409L131.68 165.498C129.468 166.352 127.607 166.684 126.06 166.684Z" fill="#9CB5B3"/>
<path d="M60.355 158.795H38.2065L51.469 189.327H73.6175L60.355 158.795Z" fill="#8E4230"/>
<path d="M81.222 191.966C78.4498 190.96 71.2822 189.906 65.3107 192.099C59.3393 194.292 56.8235 198.915 59.5956 199.912C62.3677 200.918 69.4594 199.95 75.4309 197.747C81.4023 195.554 83.9941 192.963 81.222 191.966Z" fill="#D8C198"/>
<path d="M72.877 205.153H104.899L98.3862 178.903L59.8518 188.026C59.8424 188.026 61.5227 205.153 72.877 205.153Z" fill="#543168"/>
<path d="M90.1933 219.488H67.6936V221.358H90.1933V219.488Z" fill="#472E2A"/>
<path d="M82.3706 206.643H84.7915L106.854 253H104.434L82.3706 206.643Z" fill="#472E2A"/>
<path d="M96.7058 206.643H94.2849L76.7883 253H79.2092L96.7058 206.643Z" fill="#472E2A"/>
<path d="M61.3328 206.643H63.7536L85.8166 253H83.3958L61.3328 206.643Z" fill="#472E2A"/>
<path d="M75.6682 206.643H73.2474L55.7507 253H58.1716L75.6682 206.643Z" fill="#472E2A"/>
<path d="M100.807 204.032H55.3804V208.314H100.807V204.032Z" fill="#8E4230"/>
<path d="M114.259 116.91C123.658 114.793 155.053 110.065 155.053 110.065L154.598 120.147C154.598 120.147 124.873 136.229 111.497 137.748C98.1204 139.267 114.259 116.91 114.259 116.91Z" fill="#FFBB83"/>
<path d="M122.462 124.742L121.076 115.571C118.313 116.074 115.93 116.53 114.259 116.91C114.259 116.91 98.1204 139.267 111.497 137.748C124.873 136.229 154.598 120.147 154.598 120.147L122.462 124.742Z" fill="#FF9D66"/>
<path d="M89.6331 118.438C100.873 117.309 120.364 114.983 120.364 114.983L119.329 141.071L101.509 144.878L89.6331 118.438Z" fill="#F9E6C5"/>
<path d="M101.51 144.878L119.329 141.071L119.785 129.574C115.779 131.615 105.744 134.682 96.4592 133.637L101.51 144.878Z" fill="#EAD2B0"/>
<path d="M111.972 248.158C111.972 248.158 132.639 192.498 132.259 190.257C131.889 188.026 116.054 171.887 98.3767 178.903C80.6997 185.909 99.8672 206.453 99.8672 206.453L109.551 213.526L111.222 248.149H111.972V248.158Z" fill="#68417C"/>
<path d="M111.877 183.232C106.294 180.64 102.45 179.473 98.3293 178.922C80.7472 185.957 99.8673 206.453 99.8673 206.453L109.551 213.526L111.222 248.149H111.962C111.962 248.149 120.459 209.244 123.601 198.441C123.468 192.583 119.396 186.726 111.877 183.232Z" fill="#543168"/>
<path d="M79.8548 201.241L143.338 250.76L144.269 250.389C144.269 250.389 108.354 184.589 106.01 182.814C97.6362 176.434 77.7092 184.115 77.7092 184.115L79.8548 201.241Z" fill="#68417C"/>
<path d="M98.7565 204.497C90.4686 189.137 103.095 181.257 103.095 181.257C101.424 180.602 99.2881 180.403 97.0856 180.279L86.937 185.131L87.1269 196.02L98.7565 204.497Z" fill="#543168"/>
<path d="M105.108 209.871C96.6869 199.684 90.6395 189.346 87.8863 181.238C82.2472 182.378 77.7188 184.115 77.7188 184.115L79.8643 201.241L143.348 250.76L144.231 250.408C132.022 240.478 115.142 222.013 105.108 209.871Z" fill="#543168"/>
<path d="M58.5417 199.2C70.2663 186.915 104.491 177.336 104.491 177.336C104.491 177.336 98.9368 149.112 106.199 137.577C113.462 126.033 94.8451 106.486 73.8074 122.682C53.5956 138.242 50.9089 183.374 58.5417 199.2Z" fill="#F9E6C5"/>
<path d="M73.8073 122.682C71.9371 124.125 70.2187 125.824 68.6333 127.723C72.1934 131.416 77.9465 133.941 84.4591 134.179C95.2817 134.568 104.054 128.482 104.054 120.584C104.054 119.729 103.93 118.885 103.731 118.059C100.636 117.755 97.6171 117.46 95.0064 117.176C89.0729 115.59 81.611 116.673 73.8073 122.682Z" fill="#EAD2B0"/>
<path d="M83.8803 135.764C85.4182 140.9 87.0226 151.818 88.627 162.925L82.5986 159.593L83.8803 135.764Z" fill="#EAD2B0"/>
<path d="M70.2188 153.261C70.2188 139.998 68.5195 125.644 78.4592 119.663C76.9307 120.489 75.3738 121.476 73.8074 122.682C53.5956 138.242 50.9089 183.374 58.5417 199.2C62.9752 194.558 72.4308 189.498 80.2345 186.004C75.1839 177.602 70.2188 166.485 70.2188 153.261Z" fill="#EAD2B0"/>
<path d="M65.1018 178.76L80.1871 171.365L85.9782 157.751L64.6177 176.254L65.1018 178.76Z" fill="#C1A687"/>
<path d="M83.2061 142.865C80.9657 163.172 90.4402 161.368 90.4402 161.368L83.5289 184.352C78.1935 183.688 64.314 176.34 64.314 165.659C64.3045 155.587 83.2061 142.865 83.2061 142.865Z" fill="#FF9D66"/>
<path d="M65.1018 178.76C58.2095 165.545 58.6177 141.099 66.0702 131.179C73.5226 121.258 77.8991 120.631 82.0004 127.894C86.0921 135.156 85.9782 157.751 85.9782 157.751L65.1018 178.76Z" fill="#F9E6C5"/>
<path d="M67.6463 151.799C66.583 138.024 69.5735 126.252 74.5197 123.318C72.1558 124.144 69.4216 126.707 66.0609 131.179C58.6085 141.099 58.2002 165.545 65.0926 178.77L72.3931 171.422C70.0197 166.457 68.2539 159.536 67.6463 151.799Z" fill="#EFD5B6"/>
<path d="M78.1365 119.824C91.7028 129.802 96.4211 130.865 96.4211 130.865C96.4211 130.865 97.8641 123.195 98.1394 117.65C92.8325 115.173 85.7408 115.6 78.1365 119.824Z" fill="#68417C"/>
<path d="M95.4053 128.777C85.0763 123.755 79.8169 118.951 79.8169 118.951L89.263 101.834L100.152 102.669L97.6363 117.698L95.4053 128.777Z" fill="#ED7656"/>
<path d="M106.627 104.264C104.984 99.4986 103.028 90.7456 101.633 90.3753C100.237 90.0051 91.7691 91.0304 89.9938 93.4512C88.228 95.8721 90.0888 105.641 92.3197 107.321C94.5602 109.002 106.627 104.264 106.627 104.264Z" fill="#FFBB83"/>
<path d="M98.9465 98.236C100.646 97.2202 102.412 96.4797 104.139 96.0145C103.238 93.0335 102.355 90.5747 101.633 90.3753C100.238 90.0051 91.7693 91.0304 89.994 93.4512C88.4561 95.5588 89.6712 103.249 91.4845 106.296C92.8041 103.306 95.3959 100.363 98.9465 98.236Z" fill="#FF9D66"/>
<path d="M86.5574 94.6666C86.2821 104.53 87.6586 115.116 90.2599 116.881C92.8706 118.647 105.355 118.961 110.291 114.394C111.791 113.008 106.38 102.945 106.38 102.945C106.38 102.945 96.1364 105.736 93.9054 103.875C91.6744 102.015 91.0193 92.616 91.0193 92.616L86.5574 94.6666Z" fill="#773D2B"/>
<path d="M89.8517 104.008C90.8011 103.03 90.6776 101.17 89.5764 99.8689C88.4751 98.5588 86.8138 98.3025 85.8644 99.2803C84.9151 100.258 85.0385 102.119 86.1397 103.419C87.2505 104.73 88.9118 104.995 89.8517 104.008Z" fill="#FFBB83"/>
<path d="M86.5287 96.8026C84.7914 91.9609 84.8199 89.7489 86.3958 87.5179C87.9812 85.2869 95.2818 82.2774 97.9874 83.6825C100.684 85.078 102.383 91.2204 102.383 91.2204C96.7628 91.5242 91.5223 93.6128 86.5287 96.8026Z" fill="#CE3484"/>
<path d="M89.4719 90.2045C89.4719 87.4894 91.0478 85.097 93.4212 83.7205C90.5162 84.4704 87.3738 86.1318 86.396 87.5084C84.8106 89.7394 84.7916 91.9514 86.5289 96.7931C87.9435 95.8912 89.3865 95.0842 90.8485 94.3722C89.9751 93.176 89.4719 91.7425 89.4719 90.2045Z" fill="#B7297A"/>
<path d="M91.1711 94.2107C96.9337 89.1981 113.718 81.8881 121.228 82.771C122.414 82.9134 103.285 93.3753 103.285 93.3753C101.766 91.6 97.6647 91.9322 91.1711 94.2107Z" fill="#423231"/>
<path d="M117.316 141.299L139.009 184.532L159.734 164.795L118.902 139.713L117.316 141.299Z" fill="#A9C4C2"/>
<path d="M150.411 173.681L117.411 141.213L117.316 141.299L139.009 184.532L150.411 173.681Z" fill="#9CB5B3"/>
<path d="M46.8647 184.048H44.4343L54.9152 205.713H57.3361L46.8647 184.048Z" fill="#472E2A"/>
<path d="M59.7097 184.048H57.2888L67.7602 205.713H70.1811L59.7097 184.048Z" fill="#472E2A"/>
<path d="M71.3866 204.032H50.3489V208.314H71.3866V204.032Z" fill="#A55841"/>
<path d="M63.4215 182.254H57.8867V186.536H63.4215V182.254Z" fill="#E07861"/>
<path d="M143.291 253H153.202C153.202 253 145.512 249.203 143.661 249.298C141.829 249.383 143.291 253 143.291 253Z" fill="#F2E0BD"/>
<path d="M109.817 249.345L111.886 253H117.544C117.544 253 113.339 250.664 112.219 246.269C111.734 244.408 109.817 249.345 109.817 249.345Z" fill="#F2E0BD"/>
<path d="M79.8739 182.691C74.9657 179.245 79.1429 165.849 84.4498 162.973C89.7662 160.096 115.18 159.432 115.18 159.432L117.478 168.232C117.478 168.232 92.7377 191.729 79.8739 182.691Z" fill="#FFBB83"/>
<path d="M87.2789 167.852C85.9308 166.685 85.4941 164.71 85.665 162.46C85.1903 162.621 84.6397 162.384 84.3074 162.564C78.991 165.441 74.2348 179.368 79.1429 182.814C92.0162 191.852 117.478 168.232 117.478 168.232C117.478 168.232 94.513 174.147 87.2789 167.852Z" fill="#FF9D66"/>
<path d="M153.174 167.197L156.525 163.998L125.244 144.783L153.174 167.197Z" fill="#C7E0DD"/>
<path d="M89.1871 103.486C89.8042 102.85 89.7187 101.644 89.0067 100.79C88.2947 99.9447 87.2124 99.7643 86.5953 100.41C85.9782 101.046 86.0637 102.252 86.7757 103.106C87.4877 103.96 88.57 104.122 89.1871 103.486Z" fill="#ED7656"/>
<path d="M89.3486 103.733C89.8138 103.258 89.7473 102.356 89.2157 101.72C88.6841 101.084 87.8771 100.961 87.4119 101.435C86.9467 101.91 87.0132 102.812 87.5448 103.448C88.0765 104.084 88.8834 104.217 89.3486 103.733Z" fill="#FFBB83"/>
<path d="M113.927 159.631C117.041 156.887 119.424 155.492 121.56 156.697C123.706 157.903 125.842 163.675 125.747 164.283C125.652 164.89 119.414 168.564 115.598 168.422C111.782 168.289 113.927 159.631 113.927 159.631Z" fill="#FFBB83"/>
<path d="M58.2569 182.254H41.2729V186.536H58.2569V182.254Z" fill="#A55841"/>
<path d="M154.17 120.403C160.863 120.1 168.268 122.008 169.54 122.331C170.803 122.663 172.408 120.005 171.202 119.587C169.996 119.169 164.575 115.163 161.053 115.467C157.531 115.761 154.17 120.403 154.17 120.403Z" fill="#FFBB83"/>
<path d="M162.553 108.385C168.971 107.226 176.822 106.923 177.487 107.226C178.151 107.54 177.999 110.037 177.287 110.179C176.575 110.331 165.525 111.138 163.949 112.144C162.363 113.16 160.389 108.783 162.553 108.385Z" fill="#FFBB83"/>
<path d="M98.2535 99.3657C98.1206 98.5303 97.5985 97.8848 97.0858 97.9227C96.5732 97.9607 96.2694 98.6727 96.4023 99.5082C96.5352 100.344 97.0574 100.989 97.57 100.951C98.0827 100.913 98.3865 100.201 98.2535 99.3657Z" fill="#604748"/>
<path d="M97.4464 94.8374L94.2756 95.7108C94.0097 95.7867 93.8578 96.062 93.9433 96.3184L94.2471 97.3152C94.3325 97.581 94.6078 97.7329 94.8736 97.6665L98.0445 96.793C98.3103 96.7171 98.4622 96.4418 98.3768 96.1855L98.073 95.1886C97.9875 94.9133 97.7122 94.7614 97.4464 94.8374Z" fill="#893F33"/>
<path d="M104.044 98.3024C103.883 97.467 103.342 96.8404 102.839 96.8879C102.336 96.9449 102.051 97.6569 102.212 98.4923C102.374 99.3277 102.915 99.9543 103.418 99.9068C103.931 99.8594 104.206 99.1379 104.044 98.3024Z" fill="#604748"/>
<path d="M103.38 94.1064L100.741 94.5431C100.522 94.5811 100.38 94.8279 100.418 95.1032L100.589 96.1285C100.636 96.4038 100.855 96.5937 101.073 96.5557L103.712 96.119C103.931 96.0811 104.073 95.8342 104.035 95.5589L103.864 94.5336C103.826 94.2583 103.608 94.0684 103.38 94.1064Z" fill="#893F33"/>
<path d="M100.931 98.6823C102.288 101.027 102.877 102.584 102.184 103.401C101.747 103.913 101.007 103.989 100.399 103.961V104.018C100.399 104.018 102.345 104.521 103.124 103.733C103.883 102.945 102.886 101.274 100.931 98.6823Z" fill="#ED7656"/>
<path d="M104.785 105.347L98.2344 106.344C98.2344 106.344 98.747 109.04 101.889 109.325C105.032 109.609 104.785 105.347 104.785 105.347Z" fill="#422931"/>
<path d="M104.025 107.426C104.291 106.59 104.244 105.736 104.244 105.736L98.9558 106.543C98.9558 106.543 99.1077 107.312 99.7628 107.986L104.025 107.426Z" fill="#FFEFDC"/>
</svg>
