<svg width="203" height="194" viewBox="0 0 203 194" fill="none" xmlns="http://www.w3.org/2000/svg">
<path d="M75.2804 35.1968C77.6344 35.7288 80.1737 34.8501 80.206 36.9139C80.2302 38.9776 74.6516 37.1557 74.6516 37.1557L75.2804 35.1968Z" fill="#FFBB83"/>
<path d="M76.1026 36.269C76.2638 34.5035 74.7161 33.2701 71.1045 33.1008C67.493 32.9316 64.4377 34.2295 64.2764 36.003C64.1152 37.7684 66.9045 39.3404 70.516 39.5097C74.1276 39.6709 75.9414 38.0345 76.1026 36.269Z" fill="#FFBB83"/>
<path d="M131.582 44.2337C122.682 41.6541 101.053 43.613 98.7393 43.9919C96.4256 44.3788 86.3165 53.9317 88.0175 57.0354C93.7089 67.4266 111.089 66.2658 118.216 66.3061C125.479 66.3464 134.766 62.7671 138.095 58.0027C141.417 53.2384 136.08 45.5316 131.582 44.2337Z" fill="#FF9A3E"/>
<path d="M109.534 53.1981C120.32 53.1981 130.55 49.2802 135.347 46.636C134.161 45.4671 132.839 44.5884 131.582 44.2257C122.682 41.646 101.053 43.6049 98.7393 43.9838C97.6349 44.1692 94.7569 46.4506 92.2256 49.1109C97.1431 50.3443 102.625 53.1981 109.534 53.1981Z" fill="#FFBB4D"/>
<path d="M68.6217 110.475H65.9211V146.042H68.6217V110.475Z" fill="#776271"/>
<path d="M41.1481 110.475H38.4475V146.042H41.1481V110.475Z" fill="#776271"/>
<path d="M68.6137 112.587L65.9211 112.289V123.293L68.6137 123.599V112.587Z" fill="#685263"/>
<path d="M41.1481 109.508L38.4475 109.201V120.213L41.1481 120.511V109.508Z" fill="#685263"/>
<path d="M70.7821 141.592H63.2688V146.566H70.7821V141.592Z" fill="#3A2B35"/>
<path d="M43.6874 141.592H36.1741V146.566H43.6874V141.592Z" fill="#3A2B35"/>
<path d="M73.4342 180.279H59.8828V189.558H73.4342V180.279Z" fill="#2B1F28"/>
<path d="M61.7854 185.422C61.7773 185.422 61.7692 185.422 61.7611 185.422H60.5278C60.5197 185.422 60.5116 185.422 60.5036 185.422C58.1335 185.422 56.2148 187.341 56.2148 189.711C56.2148 192.073 58.1254 193.984 60.4794 194H60.5036H61.7854C64.1554 194 66.074 192.081 66.074 189.711C66.074 187.341 64.1554 185.422 61.7854 185.422Z" fill="#2B1F28"/>
<path d="M72.7489 185.422C72.7409 185.422 72.7328 185.422 72.7247 185.422H71.4913C71.4833 185.422 71.4752 185.422 71.4671 185.422C69.0971 185.422 67.1785 187.341 67.1785 189.711C67.1785 192.073 69.089 193.984 71.443 194H71.4591H72.7409C75.1109 194 77.0296 192.081 77.0296 189.711C77.0296 187.341 75.1109 185.422 72.7489 185.422Z" fill="#2B1F28"/>
<path d="M99.3761 180.553H12.1428V184.471H99.3761V180.553Z" fill="#2B1F28"/>
<path d="M18.8097 182.013H5.2583V189.558H18.8097V182.013Z" fill="#2B1F28"/>
<path d="M100.851 180.279H87.3V189.558H100.851V180.279Z" fill="#2B1F28"/>
<path d="M54.6993 180.279H41.1479V189.558H54.6993V180.279Z" fill="#2B1F28"/>
<path d="M165.779 90.6195L134.331 104.816L172.913 191.614H173.598C173.598 191.614 175.34 106.138 165.779 90.6195Z" fill="#3A2B35"/>
<path d="M165.779 90.6195L154.525 98.3988L172.913 191.614H173.598C173.598 191.614 175.34 106.138 165.779 90.6195Z" fill="#2D2029"/>
<path d="M166.754 94.4326L128.01 108.089L121.972 191.614H122.658C122.658 191.614 168.342 109.362 166.754 94.4326Z" fill="#3A2B35"/>
<path d="M166.754 94.4326L128.011 108.089L127.462 115.707L152.622 115.239L122.617 191.622H122.666C122.658 191.614 168.342 109.362 166.754 94.4326Z" fill="#2D2029"/>
<path d="M159.128 68.0715L121.811 76.1733L124.673 108.564C139.023 107.661 155.702 103.034 167.705 94.747C167.705 94.755 161.038 71.5702 159.128 68.0715Z" fill="#FFBB4D"/>
<path d="M131.904 100.841C137.749 101.607 143.005 102.913 146.995 104.453C154.484 102.147 161.683 98.9148 167.705 94.755C167.705 94.755 161.038 71.5702 159.128 68.0796L121.811 76.1814L123.931 100.205C126.447 100.269 129.123 100.479 131.904 100.841Z" fill="#FF9A3E"/>
<path d="M58.9237 106.13H48.1294V148.154H58.9237V106.13Z" fill="#3A2B35"/>
<path d="M58.9318 109.733H48.1294V116.932L58.9318 143.712V109.733Z" fill="#2B1F28"/>
<path d="M103.391 180.183H3.67017V182.883H103.391V180.183Z" fill="#3A2B35"/>
<path d="M84.3414 144.664H22.7275L37.4397 180.263L102.988 180.287L103.391 180.183L84.3414 144.664Z" fill="#3A2B35"/>
<path d="M65.7598 92.3688H41.3013V103.8H65.7598V92.3688Z" fill="#3A2B35"/>
<path d="M65.7598 92.264H41.3013V97.5443L65.7598 106.339V92.264Z" fill="#2B1F28"/>
<path d="M71.5882 103.01H35.4728C34.2233 103.01 33.2075 104.026 33.2075 105.275V110.902C33.2075 112.152 34.2233 113.167 35.4728 113.167H71.5882C72.8378 113.167 73.8535 112.152 73.8535 110.902V105.275C73.8616 104.026 72.8458 103.01 71.5882 103.01Z" fill="#4C3845"/>
<path d="M74.1759 84.267H32.885V93.1024C32.885 94.1907 33.7637 95.0694 34.852 95.0694H72.2089C73.2972 95.0694 74.1759 94.1907 74.1759 93.1024V84.267Z" fill="#2B1F28"/>
<path d="M56.4408 45.1849H10.853C6.79811 45.1849 3.50903 48.474 3.50903 52.529V78.0032C3.50903 82.0582 6.79811 85.3473 10.853 85.3473H56.4408V45.1849Z" fill="#F7E7C1"/>
<path d="M81.1893 36.6882H22.7516C21.6875 36.6882 20.8169 37.5508 20.8169 38.6229V50.1347H83.116V38.6229C83.1241 37.5508 82.2534 36.6882 81.1893 36.6882Z" fill="#4C3845"/>
<path d="M91.2503 36.6882H65.526C64.4619 36.6882 63.5913 37.5508 63.5913 38.6229V50.1347H93.177V38.6229C93.177 37.5508 92.3144 36.6882 91.2503 36.6882Z" fill="#3A2B35"/>
<path d="M72.7491 41.0253H12.0945C11.1836 41.0253 10.45 41.7589 10.45 42.6698V87.8625C10.45 88.7734 11.1836 89.507 12.0945 89.507H72.7491V41.0253Z" fill="#5B4352"/>
<path d="M35.4164 50.0541C48.7098 45.9025 61.6404 44.129 72.7491 44.4917V41.0253H13.0458C11.6108 41.0253 10.45 42.1861 10.45 43.6211V60.921C17.7375 56.6807 26.1779 52.9402 35.4164 50.0541Z" fill="#684E5F"/>
<path d="M10.4419 84.7266V86.9193C10.4419 88.3542 11.6027 89.5151 13.0377 89.5151H72.741V84.7266H10.4419Z" fill="#4C3845"/>
<path d="M99.6584 41.0253H61.0761C60.2377 41.0253 59.5605 41.7024 59.5605 42.5408V88.0076C59.5605 88.846 60.2377 89.5232 61.0761 89.5232H99.6584C100.497 89.5232 101.174 88.846 101.174 88.0076V42.5408C101.174 41.7024 100.497 41.0253 99.6584 41.0253Z" fill="#473240"/>
<path d="M96.885 44.8061L65.5098 69.9096L74.6676 89.507H98.7956C100.11 89.507 101.174 88.4429 101.174 87.1289V52.3517C101.174 51.0376 98.1991 44.8061 96.885 44.8061Z" fill="#3A2B35"/>
<path d="M96.1757 43.8871H66.6062C65.4857 43.8871 64.5747 44.798 64.5747 45.9186V68.8293C64.5747 69.9498 65.4857 70.8608 66.6062 70.8608H96.1757C97.2963 70.8608 98.2072 69.9498 98.2072 68.8293V45.9186C98.2072 44.79 97.2963 43.8871 96.1757 43.8871Z" fill="#5B4352"/>
<path d="M94.2733 45.7654H69.323C68.2025 45.7654 67.2915 46.6763 67.2915 47.7969V66.9348C67.2915 68.0554 68.2025 68.9663 69.323 68.9663H94.2733C95.3939 68.9663 96.3048 68.0554 96.3048 66.9348V47.7969C96.3048 46.6763 95.3939 45.7654 94.2733 45.7654Z" fill="#2B1F28"/>
<path d="M127.47 28.3123C127.487 28.6348 132.082 42.2909 132.082 42.2909L121.287 45.9992L118.958 42.2909L127.47 28.3123Z" fill="#ED7656"/>
<path d="M114.435 51.8115L120.546 97.7701C120.546 97.7701 148.019 101.583 167.705 83.9527C167.705 83.9527 156 36.3254 129.913 40.7593C118.748 42.6618 114.435 51.8115 114.435 51.8115Z" fill="#5B4352"/>
<path d="M150.744 58.4462C138.442 45.0399 124.189 41.4606 118.917 50.4653C113.645 59.4619 119.336 77.6325 131.638 91.0387C133.823 93.4249 136.08 95.4887 138.329 97.238C146.536 95.9482 156.363 92.909 165.053 86.1535C163.674 77.3745 158.547 66.9591 150.744 58.4462Z" fill="#493242"/>
<path d="M140.57 57.3014C136.048 49.1673 128.929 45.1285 124.681 48.2806C120.433 51.4407 120.658 60.5904 125.181 68.7325C129.703 76.8666 136.822 80.9054 141.07 77.7533C145.318 74.5932 145.101 65.4435 140.57 57.3014Z" fill="#FF9A3E"/>
<path d="M117.16 48.0709C110.106 54.2299 103.213 70.2319 102.399 72.4408C101.585 74.6496 103.431 92.5703 107.309 92.9008C120.296 94.0053 128.059 78.3982 131.735 72.2957C135.492 66.0722 136.757 56.0276 133.839 50.4168C130.929 44.806 120.723 44.9511 117.16 48.0709Z" fill="#FFBB4D"/>
<path d="M133.847 50.4169C132.976 48.7481 131.453 47.5953 129.663 46.8698C130.066 52.1501 128.664 58.3977 126.027 62.7671C122.488 68.6278 115.185 83.2432 103.109 83.4125C103.955 88.193 105.382 92.7316 107.317 92.8928C120.304 93.9972 129.042 78.882 132.727 72.7794C136.475 66.564 136.765 56.0277 133.847 50.4169Z" fill="#FF9A3E"/>
<path d="M58.1658 144.664L36.8835 182.883H39.6889L60.9713 144.664H58.1658Z" fill="#4C3845"/>
<path d="M22.4374 144.664L1.15503 182.883H3.96041L25.2427 144.664H22.4374Z" fill="#4C3845"/>
<path d="M57.3435 148.428H21.615L3.67017 182.883H39.3987L57.3435 148.428Z" fill="#4C3845"/>
<path d="M59.1654 144.664H22.7274L20.4219 151.548H55.7553L59.1654 144.664Z" fill="#4C3845"/>
<path d="M123.327 193.919H113.564C113.564 193.919 120.384 190.614 121.819 190.582C123.246 190.55 123.327 193.919 123.327 193.919Z" fill="#6D5E69"/>
<path d="M176.597 193.919H170.406C170.406 193.919 171.825 190.203 172.518 190.187C173.211 190.171 176.597 193.919 176.597 193.919Z" fill="#6D5E69"/>
<path d="M42.8168 194C45.1854 194 47.1055 192.08 47.1055 189.711C47.1055 187.343 45.1854 185.423 42.8168 185.423C40.4482 185.423 38.5281 187.343 38.5281 189.711C38.5281 192.08 40.4482 194 42.8168 194Z" fill="#4C3845"/>
<path d="M44.1067 185.423H42.8008V193.992H44.1067V185.423Z" fill="#4C3845"/>
<path d="M44.1068 194C46.4754 194 48.3955 192.08 48.3955 189.711C48.3955 187.343 46.4754 185.423 44.1068 185.423C41.7382 185.423 39.8181 187.343 39.8181 189.711C39.8181 192.08 41.7382 194 44.1068 194Z" fill="#3A2B35"/>
<path d="M47.1216 189.711C47.1216 188.365 46.0333 187.277 44.687 187.277C43.3408 187.277 42.2524 188.365 42.2524 189.711C42.2524 191.058 43.3408 192.146 44.687 192.146C46.0333 192.146 47.1216 191.058 47.1216 189.711Z" fill="#756471"/>
<path d="M53.7804 194C56.149 194 58.0691 192.08 58.0691 189.711C58.0691 187.343 56.149 185.423 53.7804 185.423C51.4118 185.423 49.4917 187.343 49.4917 189.711C49.4917 192.08 51.4118 194 53.7804 194Z" fill="#4C3845"/>
<path d="M55.0623 185.423H53.7563V193.992H55.0623V185.423Z" fill="#4C3845"/>
<path d="M55.0622 194C57.4307 194 59.3509 192.08 59.3509 189.711C59.3509 187.343 57.4307 185.423 55.0622 185.423C52.6936 185.423 50.7734 187.343 50.7734 189.711C50.7734 192.08 52.6936 194 55.0622 194Z" fill="#3A2B35"/>
<path d="M55.6426 192.146C56.9872 192.146 58.0771 191.056 58.0771 189.711C58.0771 188.367 56.9872 187.277 55.6426 187.277C54.298 187.277 53.208 188.367 53.208 189.711C53.208 191.056 54.298 192.146 55.6426 192.146Z" fill="#756471"/>
<path d="M7.27364 185.423C7.26558 185.423 7.25749 185.423 7.24943 185.423H6.016C6.00794 185.423 5.9999 185.423 5.99184 185.423C3.62176 185.423 1.70312 187.341 1.70312 189.711C1.70312 192.073 3.61368 193.984 5.96763 194H5.98377H7.26557C9.63564 194 11.5543 192.081 11.5543 189.711C11.5543 187.341 9.64371 185.423 7.27364 185.423Z" fill="#2B1F28"/>
<path d="M18.2292 185.423C18.2211 185.423 18.2131 185.423 18.205 185.423H16.9716C16.9635 185.423 16.9555 185.423 16.9474 185.423C14.5773 185.423 12.6587 187.341 12.6587 189.711C12.6587 192.073 14.5692 193.984 16.9232 194H16.9474H18.2292C20.5992 194 22.5179 192.081 22.5179 189.711C22.5179 187.341 20.5992 185.423 18.2292 185.423Z" fill="#2B1F28"/>
<path d="M88.1867 194C90.5553 194 92.4753 192.08 92.4753 189.711C92.4753 187.343 90.5553 185.423 88.1867 185.423C85.8181 185.423 83.8979 187.343 83.8979 189.711C83.8979 192.08 85.8181 194 88.1867 194Z" fill="#4C3845"/>
<path d="M89.4766 185.423H88.1707V193.992H89.4766V185.423Z" fill="#4C3845"/>
<path d="M89.4765 194C91.845 194 93.7652 192.08 93.7652 189.711C93.7652 187.343 91.845 185.423 89.4765 185.423C87.1079 185.423 85.1877 187.343 85.1877 189.711C85.1877 192.08 87.1079 194 89.4765 194Z" fill="#3A2B35"/>
<path d="M92.4914 189.711C92.4914 188.365 91.4031 187.277 90.0568 187.277C88.7106 187.277 87.6223 188.365 87.6223 189.711C87.6223 191.058 88.7106 192.146 90.0568 192.146C91.4031 192.146 92.4914 191.058 92.4914 189.711Z" fill="#756471"/>
<path d="M99.1425 194C101.511 194 103.431 192.08 103.431 189.711C103.431 187.343 101.511 185.423 99.1425 185.423C96.7739 185.423 94.8538 187.343 94.8538 189.711C94.8538 192.08 96.7739 194 99.1425 194Z" fill="#4C3845"/>
<path d="M100.432 185.423H99.1265V193.992H100.432V185.423Z" fill="#4C3845"/>
<path d="M100.433 194C102.801 194 104.721 192.08 104.721 189.711C104.721 187.343 102.801 185.423 100.433 185.423C98.0639 185.423 96.1438 187.343 96.1438 189.711C96.1438 192.08 98.0639 194 100.433 194Z" fill="#3A2B35"/>
<path d="M101.013 192.146C102.357 192.146 103.447 191.056 103.447 189.711C103.447 188.367 102.357 187.277 101.013 187.277C99.6681 187.277 98.5781 188.367 98.5781 189.711C98.5781 191.056 99.6681 192.146 101.013 192.146Z" fill="#756471"/>
<path d="M70.2823 103.01H55.5701C57.5451 103.01 59.1413 104.606 59.1413 106.581V109.596C59.1413 111.571 57.5451 113.167 55.5701 113.167H70.2823C72.2573 113.167 73.8535 111.571 73.8535 109.596V106.581C73.8616 104.606 72.2573 103.01 70.2823 103.01Z" fill="#3A2B35"/>
<path d="M89.8233 47.2326H70.2017C69.0811 47.2326 68.1702 48.1435 68.1702 49.2641V65.4677C68.1702 66.5882 69.0811 67.4992 70.2017 67.4992H89.8233C90.9438 67.4992 91.8548 66.5882 91.8548 65.4677V49.2641C91.8548 48.1435 90.9438 47.2326 89.8233 47.2326Z" fill="#62ABBC"/>
<path d="M88.074 62.6219H81.1653V66.4673H88.074C89.1381 66.4673 90.0007 65.6047 90.0007 64.5406C89.9926 63.4845 89.13 62.6219 88.074 62.6219Z" fill="#94CEE0"/>
<path d="M78.0937 62.6219H72.7167C71.6526 62.6219 70.79 63.4845 70.79 64.5486C70.79 65.6127 71.6526 66.4753 72.7167 66.4753H78.0937V62.6219Z" fill="#94CEE0"/>
<path d="M16.8023 51.5052H14.5774V80.8329H16.8023V51.5052Z" fill="#3A2B35"/>
<path d="M20.6073 51.5052H18.3823V80.8329H20.6073V51.5052Z" fill="#3A2B35"/>
<path d="M24.4203 51.5052H22.1953V80.8329H24.4203V51.5052Z" fill="#3A2B35"/>
<path d="M42.6314 52.0372H38.0767V57.0112H42.6314V52.0372Z" fill="#3A2B35"/>
<path d="M41.3012 53.3029H38.4958V56.1647H41.3012V53.3029Z" fill="#EF353F"/>
<path d="M48.5564 52.0372H44.0017V57.0112H48.5564V52.0372Z" fill="#3A2B35"/>
<path d="M47.2343 53.3029H44.429V56.1647H47.2343V53.3029Z" fill="#62ABBC"/>
<path d="M40.8256 180.981H0.703613V182.996H40.8256V180.981Z" fill="#756471"/>
<path d="M103.818 180.981H40.4065V182.996H103.818V180.981Z" fill="#4C3845"/>
<path d="M115.942 93.5216C122.754 90.1761 124.633 82.6064 120.142 76.6006C115.652 70.6028 106.486 68.4504 99.6744 71.7879C92.8624 75.1334 90.9841 82.7031 95.4743 88.7089C99.9646 94.7147 109.13 96.8591 115.942 93.5216Z" fill="#F24040"/>
<path d="M78.5291 81.639C85.5103 87.2498 102.705 93.1911 107.937 92.7558C116.346 92.0545 120.594 87.8706 119.627 81.5423C118.974 77.2939 109.743 72.9326 106.631 72.2151C102.012 71.1591 80.3026 72.3361 80.3026 72.3361L78.5291 81.639Z" fill="#FFBB83"/>
<path d="M118.869 79.7445C113.943 82.0823 105.422 83.2513 95.8531 82.5499C89.3959 82.0743 78.916 81.9372 78.916 81.9372C85.8973 87.548 102.713 93.1911 107.945 92.7558C116.354 92.0544 120.602 87.8705 119.635 81.5422C119.538 80.9457 119.256 80.3411 118.869 79.7445Z" fill="#FF9D66"/>
<path d="M114.83 24.9346C112.75 33.5765 113.347 41.4526 114.088 42.1942C114.83 42.9359 123.456 41.9846 124.625 40.8157C125.786 39.6548 127.97 26.3937 126.906 24.7008C125.842 23.0079 115.394 22.5726 114.83 24.9346Z" fill="#FFBB83"/>
<path d="M125.342 32.7058C125.729 29.6505 127.35 25.4102 126.906 24.7008C125.85 23.0079 115.402 22.5726 114.83 24.9346C114.54 26.1599 114.298 27.3611 114.104 28.5381C117.2 28.1592 124.601 32.3108 125.342 32.7058Z" fill="#FF9D66"/>
<path d="M130.292 36.9623L129.889 25.4666L121.182 24.3541L121.924 33.0847L125.947 33.9312L130.292 36.9623Z" fill="#892129"/>
<path d="M114.895 24.7491L130.01 28.9572C130.01 28.9572 131.235 21.8067 130.598 20.5894C129.961 19.3721 119.167 16.994 117.684 17.4696C116.2 17.9452 114.895 24.7491 114.895 24.7491Z" fill="#F24040"/>
<path d="M130.598 20.5894C130.203 19.8317 125.834 18.6144 122.255 17.9211C123.069 19.5656 123.561 21.6374 123.561 23.8946C123.561 25.0071 123.44 26.0712 123.222 27.0628L130.01 28.9492C130.01 28.9573 131.235 21.8148 130.598 20.5894Z" fill="#D82B2B"/>
<path d="M123.617 27.1917C115.934 25.9583 104.189 23.9349 103.818 22.2339C103.447 20.541 115.531 22.0243 115.531 22.0243C115.822 23.9349 118.474 25.66 123.617 27.1917Z" fill="#5B4352"/>
<path d="M126.898 32.996C127.333 31.6175 126.93 30.2631 125.995 29.9649C125.068 29.6746 123.956 30.5534 123.528 31.9399C123.093 33.3184 123.496 34.6728 124.431 34.971C125.358 35.2532 126.463 34.3745 126.898 32.996Z" fill="#FFBB83"/>
<path d="M126.189 32.9557C126.463 32.085 126.205 31.2386 125.624 31.0532C125.044 30.8678 124.343 31.424 124.077 32.2946C123.802 33.1572 124.06 34.0117 124.641 34.1971C125.221 34.3745 125.915 33.8182 126.189 32.9557Z" fill="#ED7656"/>
<path d="M125.455 33.77C125.632 33.1976 125.463 32.6414 125.084 32.5204C124.697 32.3995 124.246 32.7623 124.068 33.3346C123.891 33.907 124.06 34.4632 124.439 34.5842C124.818 34.697 125.278 34.3343 125.455 33.77Z" fill="#FFBB83"/>
<path d="M67.8234 36.1964C63.8894 36.3979 63.0913 37.6636 62.4222 39.3404C62.2046 39.8885 60.6326 40.0498 60.6326 39.2597C60.6326 38.4617 61.9063 34.6163 65.8322 34.2536C69.7662 33.8908 67.8234 36.1964 67.8234 36.1964Z" fill="#FFBB83"/>
<path d="M71.2014 36.1964C67.2674 36.3979 65.8808 37.5991 65.8002 39.3404C65.776 39.9289 64.0105 40.0498 64.0105 39.2598C64.0105 38.4617 63.9702 35.3258 67.9042 34.971C71.8302 34.6083 71.2014 36.1964 71.2014 36.1964Z" fill="#FFBB83"/>
<path d="M74.8532 36.1964C70.9192 36.3979 69.5326 37.5991 69.452 39.3404C69.4278 39.9289 67.6624 40.0498 67.6624 39.2598C67.6624 38.4617 67.6221 35.3258 71.5561 34.971C75.482 34.6083 74.8532 36.1964 74.8532 36.1964Z" fill="#FFBB83"/>
<path d="M84.9865 71.9974C81.5845 71.2477 81.8989 69.2323 79.6982 69.5629C77.4974 69.8934 77.2152 71.7637 73.0474 70.2642C71.0966 69.5629 66.961 77.2374 69.3472 79.672C71.7334 82.1065 78.102 83.1384 82.5923 82.0098C87.0986 80.8892 86.9051 72.4166 84.9865 71.9974Z" fill="#FFBB83"/>
<path d="M72.8218 72.2796C69.0168 70.1917 68.8716 65.5241 68.8474 63.4523C68.8394 62.7429 71.0402 62.1141 71.6126 63.1782C72.193 64.2423 73.6037 69.6999 75.8368 70.7237C78.0698 71.7395 74.3696 73.1341 72.8218 72.2796Z" fill="#FFBB83"/>
<path d="M80.2624 72.989C76.4574 70.9011 76.3123 66.2335 76.2881 64.1617C76.28 63.4523 78.4808 62.8235 79.0532 63.8876C79.6336 64.9517 81.0444 70.4093 83.2774 71.4331C85.5185 72.4489 81.8102 73.8355 80.2624 72.989Z" fill="#FFBB83"/>
<path d="M70.2259 75.2704C66.1065 73.8919 65.1472 69.3211 64.7521 67.2815C64.6151 66.5882 66.6708 65.5805 67.4286 66.5157C68.1863 67.4588 70.5403 72.5779 72.9184 73.1906C75.2966 73.8113 71.8946 75.8347 70.2259 75.2704Z" fill="#FFBB83"/>
<path d="M71.5558 80.9618C67.9443 80.5185 64.8567 76.915 63.8491 75.1012C63.5024 74.4804 65.1308 72.8762 66.1466 73.5372C67.1623 74.1902 71.0076 78.3177 73.4583 78.1484C75.9171 77.9791 73.3132 81.1795 71.5558 80.9618Z" fill="#FFBB83"/>
<path d="M118.272 31.3998C118.28 30.7791 118.579 30.2712 118.933 30.2712C119.288 30.2712 119.578 30.771 119.562 31.3998C119.554 32.0206 119.256 32.5284 118.901 32.5284C118.546 32.5284 118.256 32.0206 118.272 31.3998Z" fill="#604748"/>
<path d="M118.006 27.7077L120.336 28.0302C120.53 28.0544 120.667 28.2398 120.634 28.4413L120.521 29.191C120.489 29.3926 120.312 29.5296 120.11 29.5054L117.781 29.183C117.587 29.1588 117.45 28.9734 117.482 28.7718L117.595 28.0221C117.627 27.8206 117.805 27.6835 118.006 27.7077Z" fill="#892129"/>
<path d="M113.871 31.5046C113.879 30.8839 114.177 30.376 114.532 30.376C114.887 30.376 115.177 30.8758 115.161 31.5046C115.153 32.1254 114.854 32.6332 114.5 32.6332C114.145 32.6252 113.863 32.1254 113.871 31.5046Z" fill="#604748"/>
<path d="M113.452 27.7883L115.314 27.7642C115.467 27.7642 115.596 27.9254 115.596 28.1269L115.604 28.8847C115.604 29.0862 115.483 29.2475 115.322 29.2555L113.46 29.2797C113.306 29.2797 113.178 29.1185 113.178 28.9169L113.169 28.1592C113.169 27.9576 113.298 27.7883 113.452 27.7883Z" fill="#892129"/>
<path d="M117.071 31.2144C116.136 32.9235 115.709 34.0682 116.12 34.6728C116.37 35.0436 116.837 35.1081 117.216 35.092V35.1323C117.216 35.1323 115.983 35.4951 115.523 34.9146C115.072 34.3261 115.749 33.1089 117.071 31.2144Z" fill="#EF7A62"/>
<path d="M114.467 37.7765L114.419 37.5991L118.788 37.4863L118.756 37.849L114.467 37.7765Z" fill="#ED7656"/>
<path d="M115.435 38.7116C115.451 38.5746 115.725 38.6391 116.12 38.6713C116.507 38.6955 116.87 38.6794 116.853 38.8164C116.837 38.9535 116.547 39.1631 116.16 39.1308C115.765 39.1066 115.419 38.8567 115.435 38.7116Z" fill="#ED7656"/>
<path d="M151.687 3.72483L155.758 5.16784L148.616 25.3457L144.545 23.9027C142.344 23.1208 141.191 20.7104 141.973 18.5096L146.294 6.29645C147.076 4.09566 149.486 2.94287 151.687 3.72483Z" fill="#3A2935"/>
<path d="M177.847 38.2924H180.015L188.439 194H184.634L177.847 38.2924Z" fill="#3A2935"/>
<path d="M163.167 35.0356H160.998L139.531 194H143.336L163.167 35.0356Z" fill="#3A2935"/>
<path d="M172.591 35.0356H170.414L163.933 194H167.738L172.591 35.0356Z" fill="#3A2935"/>
<path d="M159.502 47.8065H180.535V31.7722L159.502 31.7722V47.8065Z" fill="#3A2935"/>
<path d="M157.835 72.0555H180.528V70.3546H157.835V72.0555Z" fill="#3A2935"/>
<path d="M155.799 0.0729616L202.861 16.728L192.285 46.6038L145.222 29.9488C144.561 29.715 144.214 28.9895 144.448 28.3285L154.17 0.846857C154.404 0.185815 155.129 -0.160821 155.799 0.0729616Z" fill="#4C3845"/>
<path d="M174.961 6.85269L161.103 1.95129V35.5677L174.961 40.4771V6.85269Z" fill="#564150"/>
<path d="M184.834 43.9504L192.274 46.584L202.851 16.7025L195.412 14.0689L184.834 43.9504Z" fill="#3A2935"/>
<path d="M154.174 16.6906L188.031 28.6714L192.471 16.1246L158.614 4.1437L154.174 16.6906Z" fill="#3A2935"/>
<path d="M158.195 17.2149L187.377 27.5419L191.102 17.0165L161.92 6.68955L158.195 17.2149Z" fill="#4C3845"/>
<path d="M173.719 10.8673L164.497 7.60242V19.477L173.719 22.7338V10.8673Z" fill="#564150"/>
<path d="M190.668 33.211L194.658 34.6234L199.634 20.5642L195.645 19.1519L190.668 33.211Z" fill="#659AB7"/>
</svg>
