<svg width="196" height="192" viewBox="0 0 196 192" fill="none" xmlns="http://www.w3.org/2000/svg">
<path d="M0 7.343C0 3.28757 3.28757 0 7.343 0H196V192H7.34301C3.28758 192 0 188.712 0 184.657V7.343Z" fill="#131313"/>
<circle cx="138.64" cy="104.934" r="30.0661" fill="#8F8F8F"/>
<path d="M143.306 115.58C142.22 114.342 142.344 112.458 143.582 111.373C144.82 110.287 146.704 110.41 147.79 111.648L153.688 118.374C154.773 119.612 154.65 121.496 153.412 122.582C152.174 123.667 150.29 123.544 149.204 122.306L143.306 115.58Z" fill="#131313"/>
<path d="M147.319 98.3742C145.801 99.0123 145.087 100.76 145.725 102.278C146.363 103.797 148.111 104.51 149.63 103.872L157.876 100.405C159.394 99.7674 160.107 98.0194 159.469 96.5013C158.831 94.9832 157.083 94.2698 155.565 94.9079L147.319 98.3742Z" fill="#131313"/>
<path d="M135.658 93.0069C135.658 94.6537 136.993 95.9886 138.64 95.9886C140.287 95.9886 141.622 94.6537 141.622 93.0069V84.0616C141.622 82.4148 140.287 81.0798 138.64 81.0798C136.993 81.0798 135.658 82.4148 135.658 84.0616V93.0069Z" fill="#131313"/>
<path d="M131.408 111.793C132.556 110.613 134.444 110.586 135.625 111.733C136.806 112.881 136.832 114.769 135.685 115.95L129.45 122.365C128.302 123.545 126.415 123.572 125.234 122.425C124.053 121.277 124.026 119.389 125.174 118.208L131.408 111.793Z" fill="#131313"/>
<path d="M127.662 103.972C129.234 104.463 130.906 103.586 131.397 102.014C131.888 100.442 131.011 98.7701 129.439 98.2793L120.901 95.6132C119.329 95.1224 117.657 95.9988 117.166 97.5708C116.675 99.1427 117.551 100.815 119.123 101.306L127.662 103.972Z" fill="#131313"/>
<circle cx="65.4953" cy="94.4953" r="37.4953" fill="#8F8F8F"/>
<path d="M71.3135 107.773C69.9594 106.229 70.1133 103.879 71.6574 102.525C73.2014 101.171 75.5508 101.325 76.9049 102.869L84.2605 111.256C85.6146 112.8 85.4607 115.149 83.9166 116.504C82.3726 117.858 80.0232 117.704 78.6691 116.16L71.3135 107.773Z" fill="#131313"/>
<path d="M76.3182 86.3145C74.425 87.1103 73.5353 89.2902 74.3311 91.1835C75.1269 93.0767 77.3068 93.9664 79.2001 93.1706L89.4841 88.8478C91.3773 88.052 92.267 85.8721 91.4712 83.9788C90.6754 82.0856 88.4955 81.1959 86.6022 81.9917L76.3182 86.3145Z" fill="#131313"/>
<path d="M61.7766 79.6212C61.7766 81.6749 63.4415 83.3397 65.4952 83.3397C67.5489 83.3397 69.2137 81.6749 69.2137 79.6212V68.4655C69.2137 66.4118 67.5489 64.747 65.4952 64.747C63.4415 64.747 61.7766 66.4118 61.7766 68.4655V79.6212Z" fill="#131313"/>
<path d="M56.476 103.05C57.9074 101.577 60.2616 101.543 61.7343 102.975C63.207 104.406 63.2405 106.76 61.8092 108.233L54.0341 116.233C52.6027 117.706 50.2485 117.739 48.7758 116.308C47.3031 114.876 47.2695 112.522 48.7009 111.049L56.476 103.05Z" fill="#131313"/>
<path d="M51.8042 93.2954C53.7646 93.9075 55.85 92.8145 56.462 90.8541C57.0741 88.8938 55.9811 86.8084 54.0208 86.1963L43.3721 82.8715C41.4118 82.2594 39.3264 83.3524 38.7143 85.3127C38.1022 87.2731 39.1952 89.3585 41.1556 89.9705L51.8042 93.2954Z" fill="#131313"/>
</svg>
